<mxfile host="app.diagrams.net" modified="2023-07-08T15:46:55.766Z" agent="Mozilla/5.0 (Macintosh; Intel Mac OS X 10_15_7) AppleWebKit/537.36 (KHTML, like Gecko) Chrome/114.0.0.0 Safari/537.36" etag="8BK49Dhz0EDLSLMoNDEF" version="21.5.2" type="github">
  <diagram name="Page-1" id="55rXYwPl45wK4qimZ03y">
    <mxGraphModel dx="954" dy="943" grid="1" gridSize="10" guides="1" tooltips="1" connect="1" arrows="1" fold="1" page="1" pageScale="1" pageWidth="850" pageHeight="1100" math="0" shadow="0">
      <root>
        <mxCell id="0" />
        <mxCell id="1" parent="0" />
        <mxCell id="a1-RJesYKHAOPn0vcj3T-1" value="" style="shape=image;verticalLabelPosition=bottom;labelBackgroundColor=default;verticalAlign=top;aspect=fixed;imageAspect=0;image=https://cdn-icons-png.flaticon.com/128/1367/1367686.png;" vertex="1" parent="1">
          <mxGeometry x="310" y="300" width="160" height="160" as="geometry" />
        </mxCell>
        <mxCell id="a1-RJesYKHAOPn0vcj3T-2" value="" style="shape=image;verticalLabelPosition=bottom;labelBackgroundColor=default;verticalAlign=top;aspect=fixed;imageAspect=0;image=https://cdn-icons-png.flaticon.com/128/3201/3201521.png;" vertex="1" parent="1">
          <mxGeometry x="540" y="590" width="230" height="230" as="geometry" />
        </mxCell>
        <mxCell id="a1-RJesYKHAOPn0vcj3T-3" value="" style="shape=image;verticalLabelPosition=bottom;labelBackgroundColor=default;verticalAlign=top;aspect=fixed;imageAspect=0;image=data:image/png,iVBORw0KGgoAAAANSUhEUgAAAgAAAAIACAYAAAD0eNT6AAAAAXNSR0IArs4c6QAAAERlWElmTU0AKgAAAAgAAYdpAAQAAAABAAAAGgAAAAAAA6ABAAMAAAABAAEAAKACAAQAAAABAAACAKADAAQAAAABAAACAAAAAAAL+LWFAABAAElEQVR4AeydB5xV1fHHZ3vvfVl2l2XpvRcFBFFRFBVjV+xYYjRGYxL1n2hiEpNYEk0xRmNs0WjsvaGCikiR3ttSFthlF7b35T/zYM2CW94759b3fuNnfOXeM2fO9y7vzj1lThBBQAAEQAAE7CIQzxXnsuaz9mRNZ0098prBr7GsCayRrDGscayhrO2liT9Us9ax1rNWsR5kLWMtZd3PWsK6nXUn6w5WOQYJcAJBAd5+NB8EQAAEzCYQzBX0Zh3M2p91IOsAVvkukdUOkYBhA+t61nVHXlfx6ybWQ6yQACCAACAALjKaCAIgYCmBAq5tPOso1tGsI1jlyd0NUsFOLmVdwvo16+es+1ghfkgAAYAfXlQ0CQRAwFIC8lQ/hXXykdceltZufmXSQ/BZO91jfpWoAQRAAARAAAScRyCaXZrO+ifW7azSZR5Iuobbex/r8ax4iGQIEBAAARAAAf8lIBPzrmZ9j7WRNZBu+F21dTezeJT1BFaZ6wABARAAARAAAdcTkAl617B+xNrM2tWNEMeIdjGjB1hl3gMEBEAABEAABFxFIIS9ncH6PKssq8ONXY2BzBu4hTWZFQICIAACIAACjiWQxZ79glWeYnHTN46BBFFPsx7HCgEBEAABEAABxxCQiWwvsGJc37ibfmcB1DLmfBFrKCsEBEAABEAABGwhUMi1fsDa2c0K35vHZjtz/yGrW3IjsKsQEAABEAABfyAwhhsh6XFxk7eXQTlfg1+wSjpkCAiAAAiAAAiYSiCNrWOc394b/7GBlwRjP2WVvQ4gIAACIAACIGAKgYfY6rE3IHx2BhNJOSxDA+GmXHkYBQEQAAEQCFgCYdxyyXWPG76zGWzkazQrYP9KLWw40jhaCBtVgQAI2EpANuhZaKsHHVQeGRFJsbFxFBsT69HoqGiKiooi+T4yMooiwiMoJCSEwsLCKCw0jIKDj06419LSQs0tzdTc3Ewt/Frf0EDVNdVUw1pXX0e1dbUerePXmtoaauDjLhFJwPQjVtmlEGICAQQAJkCFSRAAAUcSOJu9esUuz+RGnpqSRinJKZSYkEhJCUn8mkTh4eb1eDdzcCA3/KamRu72kI4PXu/I76uqqqiqupIqqyrpwMEDdJC1qbnJLjRd1dvCB//KeidrVVcn4pjvBBAA+M4MJUAABNxJQDL8vWuF60FBQZSclEJZGVmUkZZBaXzjj4uzb7J7a2sr1Tc2UCProUOHA4H2HOQ76TUoP1BGpftLqbSshHsQatqfYvd7mbj5fdY37HbEn+pHAOBPVxNtAQEQ6IpAPh/c1tUJOscS4hMoJ7snaw5lpmeZ+mSv6mfroVbuEainhkbuEeggEGhvV4YOSveX0N59e2hvyV7uRXBED8HL7ONNrMXtfcV7NQIIANS4oRQIgIALCfCT+Td84xtuhOvylJ/JT/i9cntRzx65FG/jE76v7ZEegbqGOu4RkASI3Yucv798P+3ZW0y7i3d55hR0X8q0Mw6y5R+wPmtaDQFiGAFAgFxoNBMEApnA3Llzw1obgq7YunXLb+ct+Eh5gxq56Uu3fkF+b8rnG38UT9Jzs8gEwrr6Wh7/l80OvZf9Zftp5+4i2rV7F/cm2Dap8CX2+HrWMu89x5ntCSAAaE8D70EABPyOwNVzrj0/iA7dSxRUKI379PNPaNNWWWnmvUj3fp+CvtSnd1/PTH3vS7rjTJkkWMsrBuRJ3xeR82V4YOv2LbSPX7sbVvDFtpfnylDAVazveXk+TmtHAAFAOxh4CwIg4D8Err382j58f/ozt+jk9q2Sm9aChfNp45YN7b/+zvvgoGB+ys+ngf0GUVZm9neO+9sXcvOWFQP1PEegbcWAL22UJYbbtm+l7Tu2eWz4UlbzXJnV+EfWn7A6YqKCZnssK44AwDLUqAgEQMAKAtzdH031wXfyTew2rq/TNXY7dhXR8tXLqaR031FPrjKWX9irD/XvO4BiogMvO21ra4tnjN/XYYG2aysBVtHO7bRx8wZeamjpyj3J8XA+6842X/DaNQEEAF3zwVEQAAEXEbhmznWnc5K7h9nlXt66LU+9FVUVnESnxdO9H8dJeSCcL4AnCEoiIVk5oCLSoyCTBjdsXk9l5ZYN00tFl7JastxThYuTyiAAcNLVgC8gAAJKBK6/6Pqk5rCWv9KhoAuUDKBQhwTkaV6WA+omCZKlhGvWr+GkQ+Ud1mPwlzIkwHM+6G5WteiFCwaChARCI9FGEAAB/yVw9aXXTaOQQ+/zJL/j/LeV9rRMVj1IpsKQ4BBqalEfXpdUxwX5BZTAGRAl+6DJ6YjlwXYK61DWt1m9W+vIJwaaoAcg0K442gsCfkLgBz/4QUR9ReM93Jwfsx6dIN9P2uikZsjcgGqe6CdDJToiQwMy/2LVmpVWTBaUfQRmsW7X8dlfyyIA8Ncri3aBgPsI9GKXJV1vH1aZvLeD9UPWb1iPkrmXzx1yqDXoOf5yyFEH8MFUAnLzrucEQrLhkK5IZsF1G9bQ5m2bfV5+6GPdJXz+bNYvfCzn96cjAPD7S4wGgoDjCaSzh7KMS2Zwd/Qk/yV//wPWZax0eF0/PcFvA2+KvgBwgMiGQjV1vFeAjLZriqwUWLZiqSftsKaprorX88FLWF/u6qRAO4YAINCuONoLAs4iIE/w77DmdONWHW+Je+mVF189hs+7nRW/Xd0AM/uwDAXIkIAMDRghkj9g5ZoVXqcnVqhTJgTexPoXhbJ+WQSTAP3ysqJRIOAKAnLz/5g1ywtvw3hC2vfycvImRUdF4+bvBTCzTwkODqYIniDYwisFjAgCZGvkvNx8quNVBzJR0ASRv5vTWGV46RMT7LvOJAIA110yOAwCfkFAZmjLzT/N29bw+HNQ+YFy6tenv7dFcJ7JBDyrBMLCPSMBLS2+7SfQkWuhoaGeHRVl6+TS0hIOLozpXTimrkn8uSfr26wGDGIcY91FHxEAuOhiwVUQ8BMCcvP/iNXrm39buyXdLPcCUHQAZuhrY+DE17DQMAoJCTZsy2DZeyGXr3NFZQXJNTdBRrBNmWz6OmvA5gpAAGDCXxZMggAIdEpgAB/5lNXnm3+bRUnVm5me2fYRrw4hEBISSqGsMrvfCAkLC6O8nvkkr6X7S45K12yEfbYhQ1ADWV9jDcggAAEAX3kICICAJQRkrF/GXrV21pGx4p49ci1xGJX4RoAnalIo37CbOQhQ2VCoo9pSklMoMyPTs2eDUcFFu3okABjJ+gqr/hhGO8NueNvRkhs3+A0fQQAE3EUgnt2V2f55um7LuDPEuQRCOQiQ/RRkkqBRkpSYTNOmTDer52cm+ynLA2VyYEAJegAC6nKjsSBgCwH5YZWx1olG1N6ndz9KS1UeQTDCBdjohkBbCuHmZu4J4ORBRogML/TMyeX1n0FUWlZqhMn2NmQ+gPQGSCBgjMPtrTv0PQIAh14YuAUCfkTgn9yWs41qz/HjJ3ny0xtlD3bMIXB4hUCEZzig1aAgQGympaZTfHw87eENhowKLo4QkABAeqjeYA2IIAABwJErjxcQAAFTCNzCViVxjyFSWNCH+hX2M8QWjJhPQG7YYeFh1NLczNsKG3dPjY9LoOyMbJJdBnV3KjyGwnD+LN1LMlzl94IAwO8vMRoIArYRmMI1P8NqyGBwDC/9mz7lJM+scNtahIp9JnC4JyDcc6M28ok9MjKScnr05BUCpUZvKjSGGynDVvN8bqzLCiAAcNkFg7sg4BICOeynrPWPM8LfyIhIOu2kmSRPfhD3EfhfENBoaLe95B+QeQEHDh4wOl+AJAvax7rEfbS99xgBgPescCYIgIB3BOTp6T3Wvt6d3vVZh2/+p5MsB4O4l8DhICCCGmWJoIHDASHBIZ5lodU1VUanED6VaS9j3ehe6l17jgCgaz44CgIg4DuBX3MR2dlPWyIiImjmSXLzT9W2BQP2E5AgIILzBDQauDpAWiV2e2TleJIQSbpog0SGrs5k/YC12CCbjjKDAMBRlwPOgIDrCUjX6WOs2uP+cvM/jW/+qbj5u/6Pon0D2oYDZEthI0XsZmZkefYPKCvfb5Rp6c2axSrLAw8aZdQpdhAAOOVKwA8QcD8BGe9/nzVZtymy5vu06TM9S750baG88wjIzTqMN/6R4QCjJSMtw5OFcL9xuQJi2ccTWZ9hNTZqMbrxPtpDAOAjMJwOAiDQKYFH+cjUTo96eUBuDidOnk49smUeIcRfCUimwBBWM4KAdM4VIGmJS0plHp8hksFWJE/Ai4ZYc4gRBAAOuRBwAwRcTmAG+3+/EW2YMGYi9cVafyNQOt6G3KSDOAiQjIFGS2oKzxvhYFI2EjJIZB9q2TToM4Ps2W4GAYDtlwAOgIDrCURyC95k1e76HzxgCI0aNtr1QNAA7wnIcI8k3mtuafG+kJdnSsro5pZmKisv87JEt6dJbosVrBu6PdMFJ2hP1HFBG+EiCICAuQR+yuYLdavIzuxB40dP0DWD8i4kEBUZ7ZkTYIbrQwcNo4L8AqNMyz1T5gL4RTpK9AAY9WcBOyAQmATkxv8cqzzGKUt0dLRnxr/s/Q4JTAJhYeE8H8DYREFtJGV1QHV1NecJqGj7Suc1ggvLapd/sbp6C2EEAHwFISAAAsoEnuWSA5RLc8HgoGA6edoMSkpM0jGDsi4ncHhlQBg1NDUY3hKxnZ2ZTft5eWBtbY0R9jPZiAx5uXrPAAQARvwpwAYIBCYBeQr6jW7Tx44aR4W9tEcQdN1AeQcQkJUBocGyPND41XYSBPTI7sEbCO2lhoZ6I1orewZsZF1thDE7bGAOgB3UUScI+AeB+3SbkcVPZTJGCwGBNgIyDBTBez+YIbJ3wHHjj6eoyCijzP+VDfU0ypjVdhAAWE0c9YGAfxCYyc2YqNOUUE4EM3mCTKqGgMDRBKJ4p79QXiJohkRHRXuCgMOrD7RrSGQL/2AN0rZkgwFzCNvQEFQJAiBgGQH5sXuBNUunxnGjxns2cdGxgbL+SSCI76fytG7GUIAQi+QegLi4eNq1e6cRAGX8Sgx9Y4QxK22gB8BK2qgLBPyDgGyQMkKnKZKudVD/wTomUNbPCch8AFkeaJb0yOpBA/pKcj9D5AG24rqhAAQAhlx7GAGBgCJwi05rZTLWpAmTPTu46dhBWf8nEBEeTuG8PNAsGdh/EMk8FAMkgW1IKmxXCQIAV10uOAsCthMYxR5M1vGiX5/+vORPO2mgjgso6yICMmYfHGTOaLUEo7IKJS5W9rHSltPYgvSOuUYQALjmUsFREHAEAa2nf5nhjVS/jriOrnFCbtKSKMoskbkGsv+E7EtggDzMNsxz1gAH25swpMXtDeI9CICA3xKQvtLHWJV/N+Tm37NHrt8CQsPMISC7Bra0tlJra4spFciyw4jwSNqzr1jXvgwFSHbAT3UNWVEePQBWUEYdIOAfBC7jZigPyEpX7uCBQ/yDBFphOYFonrkvvQFmiewX0LOHIfP4bmcf88zy00i7CACMpAlbIODfBC7SaZ7s9GfQ2msdN1DWpQRkVUCkSQmC2pCM5B6qqCjtJEFi4BdtNp38igDAyVcHvoGAcwiMZFeU1+3JTG4Dl1w5hwo8sZRARESEUWP1Hfotc1QkCDBA5rANw9YYGuBPhyYQAHSIBV+CAAgcQ+DSYz779HFAv4EUzku6ICCgQ0ASBMlQkpmSxTsH5ufm61Yh82R+qWvE7PIIAMwmDPsg4F4C8iMmWc7OYL1QtRnSdTsYSX9U8aHcMQRkGElm7pspQwcP5/0IZNdfLZnNpWXZrGMFAYBjLw0cAwFLCchvgXTz38b6IutKVtk3dRPrG6wZrEqSy7P+o6NjlMqiEAh0REBS+ZopMmQ1ZOBQ3SpkxuJPdI2YWT7UTOOwDQIg4GgCqezduazTWU9gTWY1XPoU9jPcJgwGNgHZKChc9gpobjINRH5uL9pWtJXKyst06pjNhfuwSiDtOEEPgOMuCRwCAVMJSN/pLNZXWHezynam8iNlys0/knd1kx4ACAgYTSBSf7Z+ty4NHzJSd+mhDKPd2m1FNp2AAMAm8KgWBCwmIDOnZH3yLtbXWc9mNX1WXmGvPiRzACAgYDSBkOAQCjNxnwDxNykxiXKytXMDSP4M5SE0o7m1t4d/me1p4D0I+B8BucnPZZUuyN+xprNaJr3yCiyrCxUFHoEok/MCCFFJXqUZxEaymSuceHUQADjxqsAnEDCGwFQ2s4H176yGbHnmi1uy7C89zdJ4wxf3cK4fEJD8/aGh5k5li+EJrL3yeunSkiDccfdbxzmkSxnlQQAESJ447mP9iDWf1RbJycrhXdzwE2ML/ACqNDJce7let7T69xmo2wsgEcTJ3VZk8Qn412kxcFQHAiYTGMD2l7LK8iNb/33nGJNX3WRcMO92AqGcvc/sQFPSA+fmaE9mvdZprG39gXAaDPgDAi4nMI79n89qewpS2bTFgMlTLr8ccN8KApIdMFw/aU+3rvYt7K+7IuA0rsSU1TbdOt/JCQgAOgGDr0HAZQROYX8/ZpW1/bZLZnomydgpBASsIBBhQZrp+Lh4yuQ0wRoiE3Jlya1jBAGAYy4FHAEBZQJy83+D1TF33JHDHJ0BVRk0CjqTgAwBhJk8GVBa3ju/ty4A5ZTauhV3VB4BQEdU8B0IuIdAf3b1BVZ5unCEDB00jLIzezjCFzgROATCwsyfDJih37M1ha+IVjeCkVdUshRBQAAE3ElAxhOl298Rd1sZ9x8+ZASNHSlTESAgYC2BEE44Vd9Qb2ql8jfe0tpCJaUlqvXIQ/dGVpmoa7sgALD9EsABEFAm8DKXtP1uK+uw83rm05SJU6lP777KjUFBENAh4Lk5t7RQa2urjpluy8rGVpu3aqX2P8SVSK+d7WJuBgXbmwcHQMBvCVzELTvV7NbJ2GpcXBwlxCdSYnwCxcTEUgSvu5atUuU1ivdmj+XvNDOlmd0M2A8QArKLX5OJGwQJxmj+m09NSaXS/aWqVE/kgpGs5nZXeOEdAgAvIOEUEHAYgST250EzfJIbeWZ6FmVlZvE4fjalpaSTZFuDgIAbCIRxTgCqM9/TnrzBlUYAIJN1JUvnu+Z72nUNCAC65oOjIOBEAvexUxlGOpaclEx9e/ejwoI+FGXyXutG+g1bINCegAwDyFbBzTwUYKb0yM6hb1Yuo0OHpDdfSaZxKQQASuhQCAQCl0AhN/0qo5qfmJBIo4aPoQJs2mMUUtixmUBoaJjpAYAMfyUnpVBZ+X7V1k5WLWhkOfQAGEkTtkDAfAL/x1Vo98lLV7/M1h88YIhudjPzW4waQMAHAhIAkMmrAcQdGSbTCABGsolY1mqxZZcgD4Bd5FEvCPhOQLbWu8D3YkeXkEl7Z8w4k4YMHIqb/9Fo8MkPCMgQAGcHNl2y9LICysP3RNOd7KYCBADdAMJhEHAQgTnsi1bCH5nFf8aMWZSeim16HXRd4YqBBA7PAzC/c1tWxkRGyGR+ZRmnXNKggggADAIJMyBgAQEJAJRFfqxmnjSTl+3FKdtAQRBwA4HQYO1RMq+aKcsBNUSGAWwVBAC24kflIOA1gQI+c4jXZ3dw4nHjJ3nW83dwCF+BgF8RCLFgXwABlpKsFQCMsBs6AgC7rwDqBwHvCJzh3Wkdn5XPmfow079jNvjW/wiEhpg/BCDUUlPSdODliQkdA7plEQDoEkR5ELCGwIk61YxBfn4dfCjrMgKyykXmApgtCZwdUzML5kCzfezKPgKArujgGAg4h8BYVVdyc3JJ1vtDQCCQCIRYMA9Abv7xcfE6WG3dPAMBgM6lQ1kQsIZAPlejnPlvQF9bHzKsIYRaQOAYAsEh1tzeZDWAhiAA0ICHoiAQCASGqjZS8vhnZzpit2DVJqAcCCgRkO2BrZAEvd41BABWXCTUAQIuJtBH1ffM9EyS7XohIBBoBIItGAIQppJYS0N6aZTVLmpNiKTtJgyAQEATKFBtfUZapmpRlAMBVxMIDrImF0BsjGzupyzZyiUNKIgAwACIMAECJhNQfkqQWcoQEAhEAiEWzQGIidbqAUjha6OVTlDn2iIA0KGHsiBgDYEk1Wo0JyipVuuocrV1tbSfd22rqKyg1tZWR/kGZ8wjYMUyQPFe5tlopASWtYq29QJgcNC8vz9YBgGjCChPM47R6540yn/L7TQ1N9Ga9Wto/ca1VFVd9W39kiAmP68XDR88nJISk7/9Hm/8k4As07Mi6IuIiKB69R0IJZvQVjuuAAIAO6ijThDwjYByP36YbI0aYHLg4AH68NP3PU/8xza9uaWZNm/dRFu3b/Fshyw7IkL8l4AFuYA88CI8mwJVqIJUDvBVK2wrhwCgjQReQcC5BJRnGQXaCgDp6n/nw7eooaGhy6spT4VfLVlITc3NNHKo7XuydOkrDqoTCA4KphYyf9gnIjxC3Uki5QBfp1IpizkAugRRHgTMJ9CiUoVV6VBVfDOjzP6yUnrng+5v/u3rXrp8Ma1et6r9V3jvTwQ4ALBCwsO1dum2rQfAGjpWXAHUAQL+S0ApAJCn3EOHDvkvlXYtKysv4yf/t6mhsesn/3ZFvn27cPGXtHHzhm8/443/EAgi8/cDEFoyEVBDojXKahVFAKCFD4VBwBICSgGAeCZj3v4uMsnvvY/fUbr5t7GZv/Azz7yAts949Q8CVs0B0AwAtLoPdK4UAgAdeigLAtYQaFStppnHuP1Z6uvr6d2P3iZZ6qcj0lPyyefzEAToQHRgWav6vzQDANtm6iIAcOAfLVwCgWMIlB3z2euPcoP0V2lpaaEPPnmvw9n+Km2WIZN5Cz7m5YOrVYqjjAMJWDMAwJPp9OYaoAfAgX87cAkEnEKgRNWR6ppq1aKOL/fl15/TvtJ9hvopPQFffv0FLVz8haF2YcwmAhaNAWjOtVEe4tOlih4AXYIoDwLmEyhVraK65n9JcFRtOLHc6nWraf2m9aa5Jvbnf/mZJUlkTGsEDBPPgrWEgmYttnXTIQCw5M8DlYCAFgH0ALTDV7K/hBYtXdjuG3Pebti8nt764E2qra0xpwJY9RsCmj0AdXaBQABgF3nUCwLeE9jl/alHn3mw4uDRX7j8U2NjI82b/5FlT+b7SvbSq2+/Qnv27XE5ucB0/xBpPpt7ie1Qq1YvPgIALznjNBAIRAKbVBtdfkB5/qBqlaaW+2LRgqNy+5ta2RHjssJAEgytWL3ciupQh4EELBoB8GSU1HAbAYAGPBQFAX8noJylRtbIy8Y4/iCbt20mUTuk9VArfb1sEa86eJ/q6m37vbaj6S6v05oegKYmrX9jtv1BYQjA5X/ecD8gCGzjVir9wsjYZPmBctdDkpvuQp6db7cU7dxO/33jRdpWZMvmbXY333X1a47Ne91ezSAbkwC9Jo0TQSDwCMjNX/mOU8qT5twuXyz6XGe7VUObL7kVPvrsQ0/iIJXUw4Y6A2NdEjjU6ooeAL0sVl0S6PogegC65oOjIOAUAmtUHXH7BLaiXUWOfOKWbYVffuMl2s69AhBnEpChGyukXm9YyNhkFj40GAGAD7BwKgjYSGCRat17S9w7g12y8y3ibXudKjW8RPBDnhfwNk8SPFBxwKluBqxfVg0BaM4LUV7lo3thEQDoEkR5ELCGgHIAIF3WB116c1qxZrkhqX4vP2EcTerf27QrVbx3N73y5n9pMU8U9Pf9F0yDaLBhCR6tEElJrTEJUDJ12ZatCwGAFX8hqAME9AksZRPKi42L9xbre2CxBUnAs3zVN9q1ji7IpUeuOIfe+dm1dO6E4dr2OjMgN5zlvFTwxddeoC28WsGqp8/O/An073kzbEsQuPXpX+BobWJsCV1UAgIgIARkR8BzWDPkg68iKdELe/XxtZit5y9auohKNHP9J8dG03t3XEcpcTEUGhJMs8cOpbrGJlq4cbtpbZOnwW07tpGsGIiJiaGE+ETT6oLhzgk0e57MlTfS7NzwMUfKD5bTDp6noigruNwzimW1iyEA0EYIAyBgGYERXNMoldpkrHrowGEUHOyOTr+KygpasPAz7afox+aeT8f1L/gWWRBHQtOH9KO0+Fj6cNUGajUxU4w8GUpPwO7iXRQfn0BxsXHf+oE35hNo4q2wmy3IgSGTbCVjpKIs4HKvKZbVLuaOXwPtZsIACPgFgY9VWyHj0m4aBli6Yol2ut+zxgyl8yeO7BDZdScdR+/feT1lJpp/U5YdC996/w1696O3Dd+9sMPG4UsPgVbuAbBCqqsrdarZrVNYtyx6AHQJojwIWEdApvPfxqoUuEdERFDPHrnWeatYU0XlQZJ1/zqSyl3+b/xkLsVEdL7Vel5qMl1w3ChavLmIdpYd1KnOq7KVVZUkGwwV7ymmqMhIDA14RU39pIamBu0g0pvaN27eqLNhlHT/L/OmHjPOQQBgBlXYBAFzCEjK0JmsPVTM19RU05CBQ0m6wZ0sX/PY//7y/VouPnT5bDq+3/+6/jszFhcZQZdMGkON3EOycNP2zk4z9Ptqvg4yNNA2UTAlOdU1QzOGgjDZWB2vfrFiIubqdSt1Vn78ljHYtgwQAYDJf4QwDwIGE5BH+CkqNiVdaXZWD0ePRctchflffqr1wz2mdy79iWf9exvoBAcH0YlD+tLIXjn06ZrNVNNg/sQxuX4NDQ20q3gnbdy60dPehIRECg0NVbm0KHMsAV4AUFdvfoI9mfC5Zt3qY2v39rMsU7iVtcHbAkafhwDAaKKwBwLmEpC705WqVcgNJjfHucMA36xcRnvVJ1RRMPduvHTLFdQj2feZ932z0umSyWNo055S2rjHuvTJTU2NtHvPLlqzfjUd5OGP6Mgoio2JVb3EKMcEmluaqZG5mi1l3FNVtFN5BcBO9u93ZvvYlX0EAF3RwTEQcB4BmQfwA9YoFdfkCdupwwAyUfHTz+eRJFZRlXMnjKAbZ0xWLe6ZM3D+xBGUk5JIn3FvQGOzui++OiHd1bJx04bNG2g7LyMUkV6BkBD8TPvKUmb/a27Q41WVO7kHp6RUOViU3a3+7VVFJp2EvyyTwMIsCJhEoJXtDmAdrmJffhQzM7IoPi5epbipZTZu2Uhbi7Yo1yHr/F+4+XLPmn9lI0cKjsjP8awg2LS3lDbv1ZuPoOKLLCHcuXsHrV2/hjMhHqSwsHDP0I23wxoqdfpTmQbumm/hXgCzZRP/zcqW24ryKpf7SLGsIcUQABiCEUZAwFIC0rd5sWqNhzhDWq/cXqrFTSs3f+GnVFenvjW6pPu9bMpYw/xLjImiC3mVQP/sDE4ctI2q660fqpXsgmUHymgTzxOQFQTCJzo6mlcRKHUAGcbG6YYk/bUVGwGtXL1CZwLg35njSjtZIgCwkz7qBgE1AjLoeCOr0l2gsrKSBvUf7KiuZdmyWMb/VSWEExw9f/McSoqJVjXRablBPTPpyqnjqaqunpZt22VRgtnvuiMTzvaV7qW1G9Z6sgzKkIkkFwoLC/vuyQH+jU4g6S066aVZu0F5k06p5h7Wfd7WZ8Z5CADMoAqbIGAuARmY7ssqmQF9FnkykhtHWkqaz2XNKiA5/0vLSpXNnzt+OF01bbxy+e4KRoaF0qkjBtKM4QNo3e59luQN6MonucHt4gyDq9etouJ9xZ7NaGKiYyichwoCXZp53obkADBbJPufXANFkXEDWQEgKwFsEwQAtqFHxSCgRUCGAS5RtSBrpPv3kakE9ot0c8vSP5m5rSr/vP4iykoyf15DdnICyVCDLBlcsmUnHagxf6lZd0yqeQx65+6dtGrtStq2fSvVNdSRBAOREZHdFfXL443cU2JFCuDNWzfTgYPKW0B/xvCftvsCIACw+wqgfhBQIyDDADewKvV5y057+TwPIDpKqbiax52UkhnvMgFQVU4YWEi3n3mianGlcrJkcO70iZ4hh6Vbd3o2GFIyZHCh+oZ6ktz0sqRwx64dnGugnsLDwynKAdfZ4KZ2aq6hsYFaWs1fvbGCd37UWGr4DDdAggBbBQGArfhROQgoE5DVALKgX3nW2yEeCsjrma/sgFEFJe//wQrlJyn69QWnk4zTWy0y72B8n3zP/IBQfr+iaLelywa7a29tXS3v/7Cb1m1cSxs2rfc8rUpvi/QO+PPSQhkekYmuZoosp5UVGhryay67VaO8IUURABiCEUZAwBYCxVzrdao1S9KZgX0H2Zp9TiayLfhqvnLO9nTe1e9v15xHcjO2S6LCw2jq4D509YkTKCw4xHGBgHCRCYSStGZr0VZatWalJzCo5UlsYaFhjugFMuratfKTv/SCmC27i3fTnr3yz09JZKxLcnmYn6moG/cQAHQDCIdBwMEEZA/S01mzVXyUp8FI3pQmI936p+c2f2Uf9c1bN7V99Pn1+pOPp5OH9fe5nBkFormrvS0QkB6BlUXFjuoRaGuzPB3LfgTFew73DsiTbAmvwpAn55DQEM8SQ7fmG5DxfysSAG3kZE2VVRVtSH19/YYL/NnXQmacjwDADKqwCQLWEZBHXwkClER+xGRJoF0/+LL0r/xguZLvUuivV59LadwL4CSRQGDa4L48R+A4SoiOovW8asCOHALeMpHJlwcrDnr2JZDhgjUbVnu2LZZlbsGchVByDtj19+FtG9rOk/0VzB7/l8B5md521S+yv++3+Wzna5CdlaNuEAABbQIy9V36ImNULZ10wsmeCYGq5VXLSerbZ/7zFMmkLRUZmpdNS34ruyM7WySd8AtfLqOH3v6E1uyUTht3iewfkZqcRumpaZSWmu5RWUbqRKmorDA9AdC+0n204Eut+XszmJ0jAgBsPeXEv2L4BALeE6jkU+WJ4grvixx95so1K2wJAKTbWfXmLy2QLH1ukHDuVp/DmwxdOmk0fbByAz3y7nz6aNUGvlGZO1HNKDYyT2NvyR6PttmUJYZpEhCkpFNqSiolJyZTnM3ppaUnw4rsfzJ0oiGyblQretCo+ztFEQB8Bwm+AAHXEXicPVYOAOSJRn7gM9OzLG34Ll67rirSJX0eJ/9xk4jPp/B8BdGt+8roiXkL6anPvqaSymo3NcPjq0y0k9wDom0iEwoTExM5GEihpMQkSk46/GrVUlMZ/7dCZGWFhnzCZc2fpeilg0FenofTQAAEnE1gKbs3UtXF3Jw8OmWa9ExaJ6+98ypJCmAVGZbXgxb/VhKpuVtkeOC1xSvpsY++pPnr1DdCcjIF6S2Q3gHZgMqjsfHffpYliUZJZXWl1k6S3vhxgOerfPzZR96c2tk53+cDf+3soNXfowfAauKoDwTMIfAgm31W1bTMxpesZvLkZoU0NjbS/jL11L+njxxkhZum1yHDA+fxFsaiG4pL6LkFS+i5L5bSzv3qeRFMd9rHCqS3QLSjYE/yEcRzQBATE8vLEaM4R0EsJy3iV/4skw9jj7wGd7PMU5b/6Wwj7W2TdnJyJU15V7O8ocXRA2AoThgDAdsIyI4wklgkR9WDPr370gnHTVUt7lM5yVL3/jz138KF995Cowp6+lSnW06WuQELuDfgWQ4GXv16JVXyJkSBLtJTkJKcSoW9Cqkgv/d3ViVIgCGrFswUmbT69gdvkuw0qCjruZwz8m8faQCWASpeSRQDAYcRkMyAEgScpOrXQe4BKCwopAgLcshLZjrZ2U5FJPnPHy458zs3ARVbTiwjcwXy05Jp1ujB9INTJ9OgnExPquFtJeUkN6FAFElkJDP8t3Ha6CLurcrO7HHUXgd19bWmT6os4bkyW7drDdM8wddOa/zA6GuPAMBoorAHAvYRkNyksk2w0pZwkiCmqanRkhUBS3gdtaRTVZHTRg6kc8a5awKgSjulTBh3kQ/umeVZ8XAt7z3QJzONkws18xDBQdNveKo+m12ujlMcy404r2eeJwiQ7n/Z3MpsWcdb/0oQoiE3cVm1qFej0q6KIgDoig6OgYC7CMivYCbrOFW3ZR6A2b0Aslxr4ddfKD/N/mDGZM9ufKptdGu5mIhwT7svPn40SQbEvllpvINiK+3g+QItrYHVM+BZmrhvL/Xr05835JHd/5pNvazyN7t0+RLllNXsnOx2daepTioYRwCgAA1FQMDBBOSHRnoBlJLjW9ELIJP/1m9ap4zwwTlneXbhUzbgBwVl/4Hh+TmenoEbTplEA3pkeoZEdpcfdGT6YTOQy5h/fFyCZ7Kg2UMjMkl2V/EunWbIzH9ZAugoQQDgqMsBZ0BAm4BMHx/IOljVkvQC9ObJVmbtJ7995/aj1o/74md2cgLdc+6pvhTx+3Mjw8JIsiKeO2E43TJzKk0eUEipcTFUXl1HZdVqwyxugSZ5/3Oylee9et3MZSuW6k4ylOV/6stevPbUtxMRAPjGC2eDgBsIyOP1daxKq3ykF0BmOvfKKzClrTKWWnagTMn2iYP7eW50SoUDoJDsitgrPYVOGtqfbjjleJLhgoKMVM98gT0HKj1DBv6EQTYwkmEAM/cqkK2q1+ht/buamd/jRO7IA+DEqwKfQECPgEwG/C/reapmtmzfTEMHD+Mc8KmqJjotV1q2v9Nj3R0YW5jb3Sk43o5AQUYK3Thjkkfrm5pp0abt9OmazfTJmk20eMsOamppaXe2+97K2LxMJpV8AWbJ1u2yulZLntcqbWJh9ACYCBemQcBGAlq9AOJ3dXUV9Snoa2gTZCe1r5YsVJ4AeMfskygvNdlQnwLFWGhIsGd54QmDCunyE8bRzadNoeP6FVBWUgJJcFDKKYnNHks3g7XsSSAZBs0QGWJY8s3XOpP/JMK6nLXKDP90baIHQJcgyoOAMwlo9wLIpKfdvPFJj6wehrWwopKXr3EQoCLSzSsT3yDGEIiNjKAZwwd4VCzWNDTS8u27adm2nfTlhm2e1MQSFDhdKior+W/UHC+3FW3TXWHwLnumtXmAOS07bBUBgJl0YRsE7CXwS67+e6xKKwLE9cXfLOIf19ny1hCRCYaq0iudd5zjmxbEHAKyzPC4fr08KkstRTbuKeFhgyL6iocOlm3bxdsZ7/H0FpjjgZrVSg4qzRDpDdmydZOuaUn+41hBAODYSwPHQECbgHYvQOn+UpL5AL3zC7WdEQOymYqqDO6ZrVoU5RQJ9M1K53wD6XQpb2csInkH1hfvoxXcU7CiaLenx0BeD9TUKdagX6yySnbENl52cw+YarKqI95I0p+3jffMOIsIAIxjCUsg4EQCv2KntHoBvl76NWddy6fQEP2fi4MV6k9rQ3NN6ud14lVzqE8yj0AyE4pePGn0t14WlZbT2t37aD2r9BpsLOZcDxwoWDGEUFNT45m7YPRKgI1bJKWGljzNpa3Zo1jRTf1/0YoVoxgIgIAlBFZzLS+wXqRaW3VNFa1as5JGDFXebfjbqit5YqGqDOSc+BBnEsjjvQtET+U5Be2lvLrWExBIYLCtpIyKOGuhBAvbSw/QngMVhqQzbvGkAq7j3QSj21et9V52LixXXKp6pGKZ6PIPLScsKIwAwALIqAIEbCZwJ9d/DqvyAPqK1cupX2E/itbcv72K92xXld68nh3iLgLJsdE0vk++R4/1XJYg7io76AkKJJ3xHf9+k0oUJx3W1FQbGgCs2yiLaLREuv43a1mwoLDy5CALfEMVIAACxhDYzmYe0TEly6EW83IoHWlsbKSGhgZlE5LQBuI/BGSjI0ladMLAQprDcwx0eng0x+qPgipP/rLzn6b8UbO8JcXRA2AJZlQCArYT+A17cCVrsqonm3hGdDYvCYyOilEyIRnVVEW2AE6IjlQtjnIuIJDPwQCtVXto3ssbA4WG+n47C+JkmWGcSjkoKJi3wY7gHq5oMuDpX4bdHJf3v6M/Ad+JdWQF34EACDidgNx9f836gKqjsizq08/t+V2TJ0WIfxPIS0tSbuCu4p28Wc9O5fIGF/wT23PF9owYAjD4ysMcCDiYwF/Yt20O9q9T1zKTzMn01mmFOGA5gV5pfhHkyYY/z1kOT7FCBACK4FAMBFxIQAbg73Ch35SZEOdGt+GzDwRyU9V7AHyoxuxT5enfvqQIPrYOAYCPwHA6CLicwH/Y/4Vua0NGInoA3HbNfPU3M9H1QZ4scZFeNtcIAgDXXCo4CgKGEJCxyX8ZYslCIzIJEOLfBNLd38vzV75C6pmubLi8CABsgI4qQcBGAnO4blcsUWrPyA+eDts3B+87IBAfFUlR4WEdHHHFV/Xs5cOu8LSdk1gF0A4G3oKAHxOQf+vyhHKNG9uYFm9t9/C+iir62wef09vL1tKmvaXU1NxC2ckJdOLgvjR3+kQa2SvHjRi/47Mk3vnb+5/TW8vWfNvOLJ5wOX1IP7p62nga3Tv3O2XM/CKNe3okKZALpYR9dsXM//Zsg9p/wHsQAAG/JCA3/2dZz3dr69Y/dCcVZFgzS/yZ+Yvp5n+9QtX1HSctkpzz15w4gR6cczaFh4a4FSk9t2AJ3fTky1TVRTuvmjqe/nj5bMvaOfGuP9KSrTvcylS2DjyJtcgtDcAQgFuuFPwEATUCcvN/jtW1N39pdoZFE8T+yk/9Vz36fKc3f/FF8iE89tGXdP4f/2VILnuxabU8+uEXdMXf/t3pzV/8kXY+Pm8hnffQk9TSKqntzZek2CjzKzGvhj5s+jNW12xbiQDAvD8GWAYBJxD4AztxnhMcUfUhmvepl73qzRbZ7/62Z17zupq3udv8wbc+8fp8p5y4nLfy/dHTr3rtzjvfrKX737SmnbGRyttVeN0ek0/MY/tvsKqlyzTZuWPNIwA4lgg+g4D/ELiYm/JDtzcn2qKJYb948R3Pfve+8Prd6x9RZZ3M/3KP3P3Suz638w9vfEwHa81f3h7n/gBA/hBGsT7lhr8IBABuuErwEQR8JzCQizzmezHnlQgPk1EMc6WsuoY+Xr3R50oqauvpveXrfC5nV4EDNXX04coNPlcvQc673BNgtsTxSgA/kXO4HVc6vS0IAJx+heAfCPhOQCb3yox/4zZI990Hw0pEWhAArNhe7PNTcVsDv+GhA7fIyqLdJNvwqogV7fSTHoA2vA/xm/y2D058RQDgxKsCn0BAj8ClXHyKngnnlI5Q2OXNV+/3V1X7WuTb82XJoFtkf1WNsqv7KtQZeVtpjH8MAbQ1V9JX3t/2wYmv5vetObHV8AkE/JeATKP+ndHNC+alb7IhT4+kBM+MfF9vyiV881iwfouSWxEW9ADozHJvaT2k1C47Cum10/yVAGEh6s+kOSmJ1C8r3Wes9U1NtOdgJe0ur6CGpmafy3dTYDYfH8e6qJvzbDmMAMAW7KgUBEwjcBlbzjTK+rTBfei8CSPo9FGDSScdr4w7L7hPLQCI5P3azRbZFz4QxOntDNPIq3D6yEH08BUy9K4m9Xzzl3kgry9eRc9/sdSoYED+sH7NOl3NK3NLIQAwly+sg4CVBCQrza1GVDiCM93dd9EZNHWQLG3Wl2aNdeRW9ADER6tPPkuKcc/adae3MzRYvQdAp3dD/sJlrsnMEQM9eufZJ9HPX3zXEwjo//XTiWxDJuWaP4vSR2fVaftYEU4HARAwncAMrqFQt5YrOfvbgntuNuzmL/606gQAFswBKMxMVcbWW6OscqWKBfXamaZYq/fFdHoAjByKyUtLpqe+fzH98/qLyKAA9FrvKVh3JgIA61ijJhAwm4B6/+cRz/7vnFPo0WvOMzz1a3OL+vhxeJj56Xb78thxYabvNzhJC3waPzW6RXpnpFK/bN/HyaWd8nRstoSFqF/rZsXVDV216ZJJo+ndn13n6R3o6jwvjl3C5ziuxx0BgBdXDqeAgAsIyI/LLB0/LzxuFN01+2QdE52W5fuHslg1bv3jWdN89vGcccNIbqpukh/Pkh5p3+SsMUOoT5bvAZJvtRxOP+xrmbbzJUgxQ47vX8BBsXYm7WT2TSYDOkoQADjqcsAZEFAmMIFLpqiWzucuz7/PPZ/M+hEN0+jGl1naVsicyWPo1OEDvK5Kds174NKzvD7fKSfKU+1MnjDnrWQlxtNDvPGRFVLbqH6tzdyY6aLjR9FlU8bqIjhV14DR5REAGE0U9kDAHgKjdaq957xTjejm7NQFnR/nOo2bQqcOdXAghCegPXvTHK+CAAmY3vnptSRBgNtElnQ+c+MlXnXp56Ym0Vs/nevZCtmKdupca4PG6jtt5j3nnkqyL4WGTNYoa0pRBACmYIVRELCcwHDVGqUL+/yJI1WLe1XODQGANEQy0b1y21We3pCOth+WGf+3nj6VFv3mVhrUM8urtjvxJNl052Vu52Pc69PREEZidBTdMvMEWvzb22hIrnWb29U2NCrjCtfoZfKm0uzkBLriBK1efO+7XbxxyIBzHDcpwYA2wQQIBCIB5QBAxnflqdBM0flx1rkpqLRJegLkh1503e59tGXvfpJhCEk0M6qgJ+lMVFPxx6wycs0v5zaKOqWd9Rq9PREaOQS8ZXz22KH0l/cXeHv6sefJPACJGvcce8CuzwgA7CKPekHAWALKj6O+jAeruuxr5sD29eh0C7e3o/J+QI8MEvV3cUo7teYAWJAx8rh+vUh6gWRTJUXpxeUcEwBgCEDxKqIYCDiMQIKqPyrLwnytK1EjWY5VkwB9bRPON56ATm9PUoz5e19J71DvDK3VEI6aNIIAwPi/YVgEAasJyC+f0uwk6c5OiYsx3d/kWPUfZ9ly99Ah9+TbNx2mH1dQwdsOq0qyBQGA+KY58VM5UFfl0lU5BABd0cExEHAHgQhVNyX9qdnj/+KbTK5THTuXIYCy6lrVJqKciwjsLjuo7G1ynHqQ6UulmisBlAJ1X/zz5VwEAL7Qwrkg4EwCyvu0VtU3UDWr2SL5BXR6AXaXq98YzG4b7BtHYEfZAWVjqXGxymV9KbjnQIUvpx97btWxX9j5GQGAnfRRNwgYQ0CypyjfxYv1ftC8boFOALBL48nQawdxoq0EJF20bButKlZtyiTbBmuIegM1Ku2sKAKAzsjgexBwFwHlmcWfrtlsSUuzk9SHP3ciALDkGtlZiTxZq+7oJz1MWRp/X962e+f+A7S1pMzb0zs6r7ijL+36DgGAXeRRLwgYS2CDqrk3l65WLepTOckqpyoYAlAl555yOzWGeTIT4kzNZNlG8Q3+t6IxIbWF7Wxps+WEVwQATrgK8AEE9AmsVzUxb/Um2ry3VLW41+Vki1VVQQ+AKjn3lCvW6FrXCS69JSS9E0/M+8rb0zs6byt/qTxU15FB3e8QAOgSRHkQcAaBhapuNPE2qv/3n3dUi3tdLk+jB2Dtrr1e14MT3UlgzU71a6wTXHpL65n5i2n1TuWRNqnmC2/rsuo8BABWkUY9IGAugU/YvPJi+Ve+XklvL1tjqoc6P9KSqraxWXpQIf5KYHnRbuWm6QSX3lQqvRM/f1E7SJZ/o44SBACOuhxwBgSUCZRwyW9US8u45pw/P0tmPmn3zU5XdY8ampppPQcBEP8lsEIjAND52+qOqOSh+N6DT9Leg1or+CR6/bC7uqw+jgDAauKoDwTMI/CsjmnJCXDqbx+lxVt26JjptGx6fCxl8GQtVdG5QajWiXLWECirriGdpZ6DcjJNcVT8OvP3/6AlW7X/TcxjB7XGD8xoIAIAM6jCJgjYQ+DfXG2zTtV7DlTSib/8Mz0+byG1mpB+d7DGFrrLt6t3EeswQVnzCazYrr46TjJZDjQhAFi0uYgm3vVH+nStIctknzGfou81IADwnRlKgIBTCUgf+Qu6ztVzd/sNj79EY372AL21dA3JJEGjZFBP9Sc19AAYdRWcZ2f59l3KTvVKTyHN9LxH1b2yqJgu/NNTNPkXD9M2vTX/bXYlunmp7YOTXrEdsJOuBnwBAX0Cv2UTF7FqB/erdhTT7AeeoMToKJoxYgCNyM+hzMQ4StfoxtfpVViydadnLkCEBdu+qlwGCZRe5cmUH67cQNtLy6mJJy0WZqbSKcMG0BmjB1uyTv2LDdvolUUrPHM5ZOw6LSGWJvXvTRceN5LSeAjGqSJ+q4pkmPx49UbV4lTFGxBJdr8t+/bzRNi1Rt302/tzP39Q3+WovSWD3wcZbA/mQAAE7CfwHLsgQYDfyft3Xk9TB/VxXLskl8Lcx16gHZwpriPJ5xwID112Ns0cOaijw9rfSR6Hm558mT5a1fGNUJ6Q7zj7JLrtjGmWbP7kS4MkBXDm3LuoUmMnQF/qs/hc6droz1pjcb1eVRfi1Vk4CQRAwE0EvmRnr2GNdJPT3vjaIzmBpg3u682plp3z/BdL6byHnqSDtXWd1inH/vPlN7ShuIQmDehNMXxDNkIkOc1Db39KFz/8NG3c03kyJ+mdkCBF0tieOXoISepcp8hXm7fT3z+SP1m/lKu4VSuc2jIEAE69MvALBNQJyIYj8sRxqroJZ5aUbu2rT5zgGOdkXsKZv3/c6xz2azihkSSUkdUQMh9CZytmWa1x3kP/8tiTp2hvZNWOPRTFwcdx/Xp5c7ol5/zr069p/jpHZcg1qt3vsqE7jTJmhh3nhIFmtA42QSBwCci/7VdZz/QnBHLD3Pm3exwznn3SvX+lzxRniRdmptHts6bRRcePpvBQ75/F5GZ532sfdtrd3931lt6HDX+6i2RZphNk6j2PkM4cACe0oQMfZELuCFbHLf1r76v3f3XtS+E9CICAGwh8wE6ez5roBme98VFSHY7slcNPz1nenG7qOVv3ldHtz72hXEd5dS29yass/vHxQk+KWZk0KBPaYiLDj+qiP1BTRws3bqdHP/yCbnnqVU+Xv86OdDIc0DMlkcYW5in7blTBitp6+tHTr5my5NQoHxXsyPbcEnhbs8uWgoNtRbAKoI0EXkHA/wiUc5NkGGABa6q/NO/1JavovAnycGWvfLlxm87OcN86X1pZTc8tWOJR+TIkOJhXWsRSWEgIlVRUkSzLNFrE9++fMslosz7bk/TTRi4z9dkB4wtIjCrzbz413rTxFrWXChnvEiyCAAgYSEB2CTydtdJAm7aaeoeXatU2NNrqg1S+56A5SGVinyRkkhUFZtz8xfe9B7TS2ooJQ+Tfny81xI6DjNzOvjzlIH+6dAUBQJd4cBAE/ILAIm7F8azF/tCaGr75v/PNWtubYtRMfjsaEh0RZke1R9W5j3s35q3peNniUSe644Nky7qeVdb8u0YQALjmUsFRENAisIpLT2Z1/LikN6186avl3pxm6jlDc7NNtW+m8WF5Pcw075XtF75YRt6uXvDKoH0nVXDV57A+ap8LajUjAFDjhlIg4EYCstZqDOvDbnS+vc/vcg+A3YljZBJdVlJ8e7dc8/7MMUNs9/W5z5fY7oMBDixjG6NZXzfAluUmEABYjhwVgoCtBCQl6c2ss1jV86/a2gTOq8oT417mlLd2iizdu33WiXa6oFT3KcP605jeuUpljSr0zbZd5PLNnWqZxR2skpTCkN2CjGLrix0EAL7Qwrkg4D8E3uSmDGb9OausFnCd/OV9Wdxgr1x/8vF06vAB9jrhQ+2yl8Njcy/woYQ5pz783nxzDJtvVZZkPM06kFX23bB/Nio7oSrIA6BKDuVAwP0EZL2y/BL/jfUAqywMT2F1hcgksikDCymP8+zbJZJSd/bYYbSJc/Gv5Sx/ThZJPCR7KeSmJtnqpqyeuO4f/+HsibJizjUi/z6eZL3oyKuM+7teEAC4/hKiASCgTUCeYiQZ+59Z32eV9W0xrOmsjs4WWlXfQOeOH85u2iehIcF0zrhhJNvSzuNd6Ro5oY/T5OJJo+nV267i3Rztn7Pw4Juf0KeK2RMt5rqb63uN9Zes17K+wSqBgN+Io/9x+w1lNAQE3Ekgjd2Wu2s/1r6s0jsggYGokXICG1NKSiY333UP3mFrL0B7ELJ//A2Pv6S1PW17e7rvpXfkkSvOoRkOGaaQJZx9b76XJPmRhkjyACNvxNITJg6VsRaxbmBdzbqJ1a8FAYBfX140DgRcQeC/7KUso1KSy08Yx+PakvHYPi5gngAAQABJREFUOSIZ7n7IaXuLSu2ZXiETFOdOn0i/PO80io2McAyY37/xMd31wts6/hzkwjmsstkVRJMAAgBNgCgOAiCgTWAqW5inakVS5y7//e3UL1tGLJwjMhTw9Pyv6Vcvv+/J7GeFZ5I++LyJI+jn55ziGZKwok5v65C8//1+eC/JHgga8iCXvVWjPIq2I4A5AO1g4C0IgIAtBLZzrdIDkKFS+6FDhzw3ldljh6oUN62MBCYje/Wka/lJPDs5gXaUHdDt+u7U1zTe2e8GXpHw1A0X05wpYykpJrrTc+06IDsYfrBSeteVRWYNXsEqXfUQAwigB8AAiDABAiCgTeAGtvAXVSuyTfDXv7mVhuZlq5qwpJxse/viwm/ojSWraXe59Gari6QiPoXH9iXwOXP0EIoIU5pGoe6ADyVlxcbAW35DMmlTQ97hsjM1yqPoMQQQABwDBB9BAARsIRDHte5gTVStfWLfXvTJL248aitdVVtml5NeC0mEI7vyfbWpiLcDLibZXriuUeajfVdksmPPlCTPMIdkIJzQN5+kvVHh9uf0/6633/3mqkefp2fmL/7uAd++kZ0t3/OtCM7uigACgK7o4BgIgICVBGS51f/pVPiPay+gy7gL3K0ia+Rlp0MZLxeJ5hu8POlncsphGd93o0iQM/WeP+tunfwNt30Uq6uSBzj9eiEAcPoVgn8gEDgE5Ol/G6tyL0BKbAyteuCnlBpn9ErFwLkIRrZUtjYef+dDtKJIltRryZlcWtbhQwwkEGygLZgCARAAAR0CMiiuPA9AKi6rrqGfPof7hM5FMLLsw+/ON+Lmv5x9etNIv2DrMAF39inh6oEACPgrAdnhR/ZVV168vqKomAb0yKCBOZn+ysgV7Vq3ex9d8sgzRmz5KxNE17mi0S5zEj0ALrtgcBcE/JyALPGStd5actOTL1u29l7LUT8tLDkQ5vz52U4nNfrQbNkz+DUfzsepPhBAAOADLJwKAiBgCYE/cC27dGraX1VD1/z9Bd2JZzouBHTZe15614iuf5nwdwsrJv6Z9NeEIQCTwMIsCICAMgFZC7ef9WxlC1xwy779FMzJeCYP6K1jBmV9JPDON2vph/96xYi79n+46od8rB6n+0AAAYAPsHAqCICAZQRWcU2y7ruHTo3z122hIblZ1J/nBEDMJ7Bj/wE643f/oNpG2WBSS2QdpASAMjEUYhIBDAGYBBZmQQAEtAhIt+/NrK06ViThzty//4c27SnVMYOyXhCQJEbnPPBPz0oML07v7pTf8wnbuzsJx/UIoAdAjx9KgwAImEdA5gGkso7TqaK+qZneXb6OzpswwlE74+m0yWllWznQuvTPz9Cnazcb4ZpsGHAJa7MRxmCjcwLoAeicDY6AAAjYT+Bn7MJWXTe2lZTRWX94nKr1ctHruuG35W9/9nV69euVRrRPenyuZj2cCtEIi7DRKQEEAJ2iwQEQAAEHEJB9379vhB9Lt+70rEtvamkxwhxsHCHwp3c+I0n4Y5D8le18bpAtmOmGAIYAugGEwyAAArYTkH7lXNYRup5s2ltK64tL6KwxQ3mFADKh6/J8fN5CuuWpV3XNtJXfwm/OZdWeQdhmEK9dE0AA0DUfHAUBEHAGgY/ZjdmsMidASyRD3brifQgCtCgSPbtgCV33jxeNyrUg4/1nsGoP92g2K6CKIwAIqMuNxoKAawlIboAvWS9nDWXVkrYg4PRRg0m22oX4RuAfHy+kGx5/iWTyn0Eicz1k3T/EQgIIACyEjapAAAS0COzl0tWsM7SsHCksQcDn67fSmWOGUGRYmBEm/d6GLKu857/v0c/+/aZRT/7C7ENWyfdvWDQhRiHdE0AA0D0jnAECIOAcAovYlX6sg41wSRLXvLV0DZ0+chAlREcZYdJvbcjWvt//53+NnPAnrHawSkAnkz0hFhPALBiLgaM6EAABbQJyp17AOkrb0hEDWYnx9OZP5tLQvGyjTPqVnZqGRrr44adJ0vwaKHVsazKrbPgDsYEAegBsgI4qQQAEtAjIhLH3WS9mjdGydKSw5Ad4/oullJ+WTIN7Zhlh0m9sbNxTQqff9xh9scHQ+XnS3X8Z6wd+A8qFDUEA4MKLBpdBAASoghnIcMCFrNqTAoWnbGEryWz2VVTRtMF9MTmQmchM/9n3P0G7yg1PyX8vm39EuEPsI4AhAPvYo2YQAAF9ArPYxCushj7MDODNg56/+TIamJOp76ELLUhe/ztfeIv+/J6MtBguz7LFOayY9Gc4Wt8MGvqPxreqcTYIgAAIaBPYwBakN8CQlQFt3uyvqqHn+Ok3KymBhuZmU1BQ4DwrfbNtF53+u8eMHu9vQ/suv7mAtbXtC7zaRwABgH3sUTMIgIAxBGQoQH7Lphhj7rAVGRJ4Y8lqWsBLBccV5lFqnCHTDYx00VBblXX1dMfzb9F1j79IJZWy2tJw+ZwtnsnaYLhlGFQigABACRsKgQAIOIzAJ+xPOOsko/0qKi2nxznxTVl1DR3fvzeFh/rfz+bby9bQmbxZ0kerNhi5vr/9pZAg7VRWUyKL9hXhvfcEAqdfy3smOBMEQMC9BB5g139klvsFGSn0wKVn0UzOG+APsoH3Rfgx7+T3Hm+XbKIsZdvTWQ2fSWiizwFhGgFAQFxmNBIEAorAT7i195nZYskX8LOzTqLZY4e6cn7Adu7V+P3rH9OTny4iSfBjosg2gTJRU+ZpQBxGAAGAwy4I3AEBEDCEgGwh/DCrqYn+x/LcgJ+dNd01PQIynPE7vvH/67NF1Nxi6o1fLuJbrOexSsIfiAMJIABw4EWBSyAAAoYQuJSt/JM11BBrXRgZXZBL10yfQOeOH06xkRFdnGn9Idmw55M1m+iJeV/Ra4tXWnHjl0Y+xXo1qyRtgjiUAAIAh14YuAUCIGAIAZkU+DJrmiHWujESxzf/Wby50CWTRtOJnEzITtlzsNKTyOeJeQtp674yq1yRtf2/Z72D1fQuBqsa5a/1IADw1yuLdoEACLQRKOQ3b7AOaPvCileZJzCLtxueMXwAje6dS8EW5BKQsX2Z0Cc5+2VGvwXd/O1RyoY+c1glMRPEBQQQALjgIsFFEAABbQIJbOHfrKdpW1IwkBYfSycN7UencjAwrk8+5aUmGTJ5UJYmLtu6y3Ozl5u+zOq3SYq43rNYl9tUP6pVIIAAQAEaioAACLiSgEwI/CnrPaymzwvoilB8VKRn06HBuVmeTIMFGamUlRhHaQlxFBUeRjKUIFLf1EySlre0sopKKqpJti9evXMPrdpRTKv4tbjcEZPrpXflSlbLxhmEDQQEQAAEQAAEfCUwlgtsYZXxaqg6g3rmdzMrHiQZAgQEQAAEQMAdBJLYzRdZEQCoMVjL7Ea441LDSxAAARAAARD4LoEz+KtdrAgEvGPQxKwkyVIkKwQEQAAEQAAEXE0gkb3/OyuCgK4ZrGRGY1x9peE8CIAACIAACHRAYCl/hyCgcwY5HTDDVy4mYGqaTBdzgesgAAKBRwCJa7q+5hIcQfyIAAIAP7qYaAoIgAAIgAAIeEsAAYC3pHAeCIAACIAACPgRAQQAfnQx0RQQAAEQAAEQ8JYAAgBvSeE8EAABEAABEPAjAggA/OhioikgAAIgAAIg4C0BBADeksJ5IAACINAJgR+edgLv/DeEJMe/0yQ0OJgm9u1FPz9nBiXHRjvNPfhjIwFbN8Swsd2oGgRAAAQMIzBtUF/64anZvP1uC321ucizO9+8NRs9m/cYVokPhiQQmdS/t2cHwqkD+1BCdJSn9GMff+mDFZzq7wQQAPj7FUb7QAAELCMQGhJCx/cr8Ojd3zuVd/GrphU7dtPqHXtoydYdrDt5hz/Jpmus5PL2wqMLcj07DI7pnUuDcrIoOAh79BhL2f+sIQDwv2uKFoEACDiEQFp8LE0f3M+j4lIT9xDsLDtARaWs+8s9PQTyKlv91jY2erb+rWlopKq6emo9dIhieVvg6PBwzxbB8lQvn/PSkigvNZnkpi+vefwa58ChB4dcArjRBQEEAF3AwSEQAAEQMJJAGPcQFKSnetRIu7AFAioEMAlQhRrKgAAIgAAIgIDLCSAAcPkFhPsgAAIgAAIgoEIAAYAKNZQBARAAARAAAZcTQADg8gsI90EABEAABEBAhQACABVqKAMCIAACIAACLieAAMDlFxDugwAIgAAIgIAKAQQAKtRQBgRAAARAAARcTgABgMsvINwHARCwn0BCTCSFheLn1P4rAQ98IYBEQL7QCrxzZeeQvqy9WJNZY1gPJxXnNxAQMIDAQbZRy7qPdQPrDtZDrK6S8NAQSkuI9WTyq65roKbmVlf5D2cDkwACgMC87l21eiIfnM06lXU4Kx5rGALEMgISECxg/YD1RdYSVtdIVHiYJ21vY3MLVdXWU0NTi2t8h6OBRwABQOBd845aLE/6V7PeyNqnoxPwHQhYRCCR6znjiD7Er++w/p71C1YjRQLbQtZhrBLoDmUdyGqISI9ASnwMSSBQU99I9Y1NxKn93S7/5gYsYl12RDfxq/tbxY0IVEEAEKhX/nC75UfwGtZfsqYf/gr/BwHHEJDfp1lH9GN+vYl1LauKZHChCe10JL+XIS1TRQKB8Ngo3tgnkuoamqiWN/px8fDAZIYl2iaV/OYb1raAYDG/l2EciEsIIABwyYUywU150n+GdZwJtmESBIwmcCIbXM76W9ZfsTazdiVZfFDKiMpNq4DVNpGteWMiwz3a3NLqmSvQ0Njs6SGwzSn9iuPZxJQj2mZtN7+RYG3ekdddbQfw6jwCCACcd02s8Oh7XMkTrPIPGAICbiEQxo7+nFXmp5zLKhMH2ySc35zAOpN1Oqth3flsy1AJDQnm7XsjPNrSeojnCTR7tJHnC7S0thpaV3tjIVxvUPsvzHnfg83OOaJSw0bWtmBAAoMD8iXEGQQQADjjOljpxc1c2YOs0v0PAQE3EpjETn/JegGr9GSdyTqD1XUBbUhwEEVHhHmU/ecA4BA187wBmTvQxMFASwsHBdxjwF97LdLbEBISRKHBISTBRhgPQ4hKXUGsFousIhK9jrWJVYKA/7K+xlrGCrGRAAIAG+HbUPVtXOcfbKgXVYKA0QSkS/9ro43abU9u0iHhoRTB2l5aeQZhS8shnnHH//H7/00oPERBfMOXm768iooNh4r04EigJvooq/QMSDDwKut+VojFBPAUaDFwG6u7jOuW2dQQEAABlxGQG7wkGpJJhRFhoRTJAcJhDfN8lid8edp38M3/WOIS4ZzM+hjrXlZZ9nkeazgrxCICCAAsAm1zNUO5/r+xOvbRwGY+qB4EQMA+AiFc9Ums/2HdwXofay9WiMkEEACYDNgB5qPYB+lmk1cICIAACDiZgCzX/AnrZtY3WWVSJ+5TDMEMAVgzqDrL5p3sjkyUgoAACICAWwjIvel01rdYJRi4njWCFWIgAQQABsJ0oKk89kkm/kFAAARAwK0EZDjgr6wSCNzIGskKMYAAAgADIDrYxO3sG6JmB18guAYCIOA1gRw+8xHWIlYZJohmhWgQQACgAc/hRWX3visd7iPcAwEQAAFfCaRzAZkouIX1JlZZXghRIHD0YlMFAyjiWALns2eGdJVFRkRSRnomxUTHUFgY/q059orb5FgrJ6xpbGr0vXZezF7f0EDVNdVUfqDMs77ddyMoEcAEMrntf2KdyyqBgOQVgPhAAAGAD7BcdqpkSdOS+LgEGjNyLPXK7eVJMKJlDIX9mkAV38SbmyXRm5rUN9TThk3racu2zSQBBQQEfCAwiM9tyzB4K7/f4UPZgD4VQwD+efljuFnjdZrWs0dPOvv02VSQV4Cbvw7IACkbGaE31UR6mYYNHk6TJky2tJcpnHPyF47uRydefhql9EhTvlqSqc8NcsiXnMLHNGjkhROp4Ph+FJMSe8wRx3yUPU7Wsd7Fakjvp2NaZpIj6AEwCazNZmXbU+WMWqkpaTR9yskUGoo/D5uvo2uqDwsN8wSKkqZWR9JS02n86An0+VcLTBkSyO6TQ/lDC1kLKG9Ib8oq7EHBwYefg3au3UZlu0uV3K/hbX7dINX1DcpuTrt6BjWEHu7lqS6ppL1rd9O+dbtpL+u+dcXUwrsbOkBkYqDsFnk565Ws81khnRDAL3wnYFz+tXSJKYs8heHmr4wvYAtKEKA0F+AYYjLfJD83n7YVbTvmiO8f45Ljqd+EQTRg4hDqP3EwJaQldmokIkY9V1ZlbV2ndp1yQLYhrlYMVGQToby0PGo+1EwH6g9SUEYQxabHU+EJAzzNa25opuIVRbRj8VaPlm0rsbvZvdmBT1jvZ/05q3rkw4X9VRAA+OeV7avarB5ZPSg1OVW1OMoFMAEJGo0IAARh38L+WgHAtMtm0JiZEylnQJ7XQ1iRMeq9xltLyh1/5beXqk+0jIiO9OwkGMYT7tNj0igpKpFKa/ZTdWONZ4Oi0IhQyh3b26MComZ/lScQKFq0mbYt3ETN9erzQzTASteOLIU+hfUS1tWskHYEEAC0g+FHb5Xv4D175PoRBjTFSgIhR7rSjagzLjaOYmNiPSsEVOwNnTqKeg7M96mo9BaoyobifapFLSu3frf6U3lcSsJRfoYFh1F2XBbVNdVRae1+qmuuP+p4TGocDTh1mEeb+Oa/7YuNtGneGpKAoKWp5ahzLfgwjOtYzCpZUf/IilmmDEEEAcBhDv72f+VZOvLDCwEBJQJBh8fSlcp2UEiWncoSQRWpq671uVh6fpbPZdoKfLFBf7iizZZZr19s2KpsOiNfVtx9V6LCoig3oSfVNtZSSW0pNbR8dy5EWGQY9T1xkEcbaxpoy/z1tOGj1bRzKftz6Ls2TfpGunceYJ3JehGr8yM2dtJsQQBgNmF77CtPyQ4LU547aE9LUatjCPCOtYaKTs6J5gbfu5wzCtQDgA3FJVRcXkHZyUc/KRsKRNPYvDWblC1k9OqaTXR4NOWF59KBugO0v6680wmc4TER3/YMHNxVTqteW0Lr3l1BDdVH9yAoO9p9wWl8ivQGnMW6rPvT/fsMY0N2/2aF1oEACPgxgcxubnJdNV1WP7z01fKuTrH12KY9pfTNtl3KPnQXAIjhIP4vOSqZ8hJyKZJ7BrqTxJxkmnTjyXTFyz+kqbfOpJQCSfBnifTkWhawSrK0gBYEAAF9+dF4EACBNgIyzp2Wm9H20efXp+fLg6Uz5RlN33qP7Od1wyJCwik3vodnsmCQF8NCMkQweNZIuujJa+msBy+hrCFyfzZdZLng86y/Zg3Y+2DANtz0Py9UAAIg4DoCfcceXtam4viqHcX0wcr1KkVNLVNZV0+Pffylch2ydNKbHoD2FUhvQFJkIvVKzKWoUO9XV/Qc1Yu+9+fL6RzWHsPz2ps0470MWt3B+harc8duzGj5EZsIAEyEC9MgAALuItB33EAth3/13/c7Hf/WMqxR+JH35lO5wqTItip1mMhqgdyEHEqNTmkz59VrNvcCzP7THJr1+wspY0C2V2U0TjqVy0rOgIALAhAAaPzVoCgIgIB/EZCEQSFh6nOjF20uIicNBRSVltMf3pindZGGnDBCq7zMDkjhuQE5cdkUEhzik628cYV03t+uopPuPJOik5UXN3lTpzRShgQCShAABNTlRmNBAAS6IhCdEENDpgzv6pRuj/30uTdpV9nBbs8z+wTZn+C6f7xItYrZ/8S/qNhoGjJVNwA43NKY8BjK5wmCsnTQJ+GO+v4nD6VLn72Bhp0zloJDTLttSU/ALJ98c/nJppF0ORe4DwIgEKAExp5xnFbLy6pr6JJHnqGmFssT3hzl929e/ZA+Xr3xqO98/TD85DEUFmHc0uDQ4FDqyRMEE3l+gK8iSwgn33QKnf/Y1SRDBCbJXJPsOtIsAgBHXhY4BQIgYBeBQZOHdblngDd+fblxG1396Atk1y6Bz3+xlH718vveuNrlORNmT+7yuMpBmSCYwemE02PUEpamFmbQOY9cTlNunkGSgthgOd5ge442hwDA0ZcHzoEACFhNQOYAyF4CuiI34Ruf+C+1tLbqmvKp/CuLVniCD92dGfuM7k8Fw/v4VLcvJydFJlEPnhcQzAGBz8JFhs4e4+kNSCvsOEuhzzYPF5CJgOo5oRUrtasYAgC7yKNeEAABxxI4/rxpFJOoP+ns8XkL6cI/PU062/D6Aklm/F/08NOGDD/MuPZMX6pWOjeW5wX05FUCITw0oCLJ+Wl07qNX0sgLJ3g2K1KxcUwZSU5sWVrCY+q2/CMCAMuRo0IQAAGnE5Dd74zoBZB2vrZ4JU246yFaWVRsWrMP8nbEF/7pKbr16dcMGXaQJ3/ZRtkKieQ8AXnxOSTzA1QkJCyEjrtuOp31wCVGrBSQSRONKn64sQwCADdeNfgMAiBgOoFpc07VygzY3kHZK0CCgJ/9+01DewOkm//fny+lobfdRy9z178REsy7Op57x6VGmPLaRlhIGKcQ7kmSN0BVckbm0/l/v4rS+na9b0E39t/o5rhfHUYA4FeXE40BARAwikBYRJihN0JZFfDAW59Qn5vupV+/+gGVVqrtdCjta2hqpv98uYxG/fR+uvyvz9Heg1VGNZuOP3+az1spG1G59ABI0iAJBlQlNj2evvfIZdRnmlLvhVyQh1XrdmM537IyuLGFgenzHG52gUrT+/TuS/FxATMHRgURynRCQJ5GGxobOjnq+9e7indSZVWl7wW5xMhTxlJWYQ+lsu0Lyd4Ae7cU054tu9t/rfW+rrGJPlu7mR55dz4t2brTs04/ITqKknjNfVdyoKaOPlixnmScf+5j//E8+ZdoBBEd1ZWYnkRX//EmXvqnfhPuyK633wXz3gGx4bFU01RDLYfUJk8Gh4ZQ4ZQBJK+7lxd5t+Xw4XmIsgRQNgkKGFEbdAkYPGgoCIBAoBO48O4rqGj1VirbXWooCukReHvZGo+K4UQOAvpkpVFOSiLFRkbwk3AIVfDYfllVDW3au592l5ubXCiY67v89zdQVFzXgYihEDowFubJFZBDOyp38WRG37d19pjkG/qYS4+n1N7p9NFv36D6yroOajr8lcwhOOGWU2nc2VPO/82EHz/V6Yl+eMCuAECWWsjej/KoKerWnogK9r2GVf5lmjfDh41DQAAE7CEgN8Qr7/8+PTjnXmrhrnezRCbyLd6yw6Nm1dGV3Zk3nk2Fo73f9a8rW7rH2hIGFVXs4mWU6sx7TexLF/Iug0ue+Zw2fLiKGmv+10MVyrsQyvFxV0yhpNwUqm6sOvXOr+5/4tfjb7tK13+3lLciAIhgGBNZp7JKkgXZbsvQhZtszwkig3Ayg/Rr1nmssrlEGSsEBEDA5QTyhhTQeTwx7vl7nnR5Szp2f9iJo+jkq87o+KBN38qEwJy4LNpZuZtXNqgNB4jrsalxnid8ySJ4oGg/1R6ooajEaErskUwSBLTJITpEVQ2VV9719QPb7x1766/avvfnVzMnAY5mcH9hlSdjuSH+H6sEAf548+dmURzrKNbrWV9i3cP6Ous5rFYEWlwNBARAwCwCx507lU674WyzzNtmt/eoftz1f71R6+gNbYcsEcyOlVsG9+lriuwhkFKQTrLlcGrvjKNu/m2mPUFAXcUvf77wgWvavvPnVzMCgBMY2Iesi1lvYE1mDUSR0HIW639Z17PKH9T/wk3+AAEBEHAXAQkAJl9woruc7sLb7D496bo/32Jovv8uqlM6JJsIZcamKZVVKdTKPQGVzVWP3v31g/rpIFUcsLCMkQFANvv9NKt0fU+3sA1uqKo3O/kY62rWk9zgMHwEARDomMC5d86h6VfO7Pigi77NG1xAN/3zp7ZP+vMGWUJEgmdLYW/ONeKcltaW4MrG6jfuWvSHXkbYc6oNowIAyRqxgdXa7BFOpdq5X3350PusMjQS2flpOAICIOBUAkFBQXTWj86ns269gOS9G0U2PLr5yZ9RbJKMXLpDUqKTPUsErfKWVyCENbY0Lr77xbvDrarT6np0AwAB8wSrPPnrJ862uvX21Ce/GDI08iVrPisEBEDAhQSmX3GaZ3VAZKyP+9vb2FYJWKbNmUFzH/4hhUfJ/Gz3iOwimBmbrpUt0NfW1jXVpzT2jHrP13JuOV8nAIjhRsoktyvd0liH+TmC/VnIOtxhfsEdEAABLwmM4IRDd7zya8ofKqN8zpYoTjQkyxln334RhXCSHDdKSFAI9YjP4lBA59blW8urGqun8soAmcTud6JKUZ72P2L1+0kSJl9xmd4qcyYkGICAAAi4kEBydip3p99Bp1wzi2QrYSfKkBNG0B2v/pokYHG7RIREUEZMqqXNqKqvuufur++fbGmlFlSmEgDITHZZ5jbeAv8CoYpEbqTMC5D5ARAQAAEXEpDUuWfc/D266/Xf0oDjhjimBZLa99LfzKVreaZ/UlaKY/zSdSQhMoESIq1LWd56qCWoqrHuvbu/fNCvVrWphKuyWQKe/HX/go8uL2tcZDhlDKtsSAEBARBwIQHZO+D7f/8xrV2wkt577HXa+s0mW1qRlJlM06+YSRO/N8XRS/x04GTEpBGP0RNP1NMx43VZrieqPiRMctr4zbCtrwHA+dz467wmhhN9IdCfT/4bK1ZS+EIN54KAAwkMnDSURDctXkfznn6fA4IV1NLcYrqnPQfm0yTezW/crOMdOxxhFASZB5DFSYJ2VOzklfuHjDLbpZ3axtphdy164Cf3jrv1d12e6JKDvgQAMl79qEva5VY3L2HHpSdAkgdBQAAEXE6gz5gBJFp9oIqWvvMVLXlnIRWt2kqtreqpbY9FktoznUacPJbGnnGcITsgHmvfyZ8jQyMoKSqJyuvKLXFTAo2axup7H1ry0NO3jL5Fsr26WnwJAP7ALZXxaoi5BB5i8++xYijAXM6wDgKWEZD19lMuPsmjddW1tHnxetqwaB3tXLed9m0t9gQI3jgjS/fS8zMpuzCH+o7l4GLsQErpYe2EOG/8tPKcVM4PUMvbB9c3/2+jHzPrb25tDi1prJdJ8IPMrMcK294GADJ19GIrHEIdlMMMbmO9GyxAAAT8j4AsxxsydaRH21pXW1FDpTv3UX1VHdVW1VJDTZ1nyCA6PoYiYiIpIjqSknkSnz9N5Gtru+7r4fwAGbT94E42Zc1QQE1T3cD/W3j/Xb+acNu9uv7bWd7bAOAOdtLQlFfhkTEUn5pDMYnpPFblwkRLhw5x1L6Pag6WUE1FqdHX8CY2+CBrpdGGYQ8EQMB5BKITYigvocB5jrnEI1kamBqVTPvryizx2LNpUHPN3Zwq+Ll7x/04lys9l1UmB0ay7mL9gvVZVkcPE3gTAMjktFms2iI3/ZEzrqaBx82mnAHjKTjYnckojgVRXryZ1n/1Bi1+61E6sHfrsYdVPidxobms96sURhkQAAEQCDQCydFJVNVYRQ0WrQoo31Ua8uK9r69hzsemgpRdYc9k/RXrr1l/w2r+DFCuxFfxJg/AZWxU++l/6LSL6QePr6cZcx+g3EHH+c3NX4AnZxfSxNk/ohsfW83JQO6n0HAJArXlCm0LMAACIAACAUJAhgIyYjP4/9q3q26JlW0roZeu+ycVr9l57M2/fVnJtfxLVukJcOTTbncBgByXmenKIk/5ctOffdtTFJecpWzHDQVDQsNpwtk/pMvv+5g32ZBFE1oykEtLJAkBARAAARDwgkBUaCTFRZi7LU1zfRO9fceLVFdR64VHnlMu4P/f7u3JVp7XXQAwlJ2RSWnKMv2K39D4s25WLu/Ggjn9x9HFv3yLZMhDU2ZqlkdxEAABEAgoAmnRqRQc1N2tTR3J8v8uooriA74a+AUXkLkCjpLuKE3T8XbQpO/RxHNu1THh2rJZvYfTzBv/ouv/VF0DKA8CIAACgUQgNDiUknlCoFmy9u3lKqZlOODnKgXNLNNdADBRtfLQsAg66Sq/SJakioCGTr2YevST7L7KMp5LOnLsSLlFKAgCIAACJhNIiUqk8GDjV5fVHqhRefpva63Mp+vT9sEJr90FAANUnZRJf4npearF/aKc7L096fyf6bRFZhPm6xhAWRAAARAIPAJBlG7CjoG1ZVr52WTV3T1OuhZdBQDy5Nlb1dn+E85SLepX5XqPPEl3LkA/vwKCxoAACICABQRiwmMoOiza0JpCI7xZOd9llbKfjsytc4R0FQAksIcybuG78JNvr2En+F7OD0uEhUd5ch5oNC1doyyKggAIgEDAEpA0wUZKQo9kCovSGlqQe+6vjPRJx1ZXAYDyWoqo2CTegtLYyEunkXaXTUjtqeNCnE5hlAUBEACBQCUQFRpFMeHG3YuCgoOo8ATlkfG2y3AGvxnX9sHO164CgK4SHHTpswQAkP8RiIrTikKVr8P/PMA7EAABEAhMAqm8LNDI5EAjzhtPEghoiBSW9Pq2S1cBgNdZDo5tRW3l/mO/CujPsl+AhtRolEVREAABEAhoApG8T4CRvQApBenUZ+pAXabSC6BtRNeJrgKAKlXj9TUVJAo5TKCidIcOCuXroFMpyoIACICAvxCQXgAjZdwVUyg4pKvbZ7e1SS+A7UlyumqB7ESn3AuwZdmH3RIIhBMaaitp1/pFOk3do1MYZUEABEAg0AlEhIRTfIRx06kSe6ZQ/xnDdLFezAaydY3olO8qAGhlw5tUja/74hXVon5VbsOit6i5qUGnTRt0CqMsCIAACIAAb9rG2QGNnAsw9rJJvJW9Vp42WWV3k53XpqsAQPxap+rc2s9fppIi2SkxcKW1pZnmvyA7QSqLZJ3YpVwaBUEABEAABDwEpBcg2sAVAXEZCTT4jJG6dK9lA/G6RlTLdxcALFA13NraQu8++kOS10CVr15/mPbvXK/T/M+5sPTEQEAABEAABDQJJEckalo4uvjoS4+n0Miwo7/07ZM4dI1vRYw7u7sAYJ5OVdtWfEIfPvETHROuLbv1m4/poye1V3po8XctPDgOAiAAAiYQkB6AiFC1/HYduROdHEsD9OcC/IBta40ldOSbN991FwDI4+tGbwx1ds7CV/9I7z12a0D1BKxf+Dq9cO85JEMAmvKmZnkUBwEQAAEQaEcgOdLYPDUjztfOCyCb5sxo56Jlb7sLAMSRZ3S9+eq1P9HTd5xMe7eu1DXl6PK1lWX03t9/xDf/71FjndamEdLOr1m1xg8cDQvOgQAIgIANBOIiYimMtww2ShKyk6j35P665mQugOXiDYWn2atfsHpzbqcN2L7yM/r7D0ZT/wmzaMBxs6lgxIkUm5jR6fluOdDUUEs7131FG756g1Z8/CznPzholOv/NMoQ7IAACIAACBwmICsBEiMTqLS2zDAkIy+YSJs/VZ4zL36cxio543fKB6vEm5v6Dnbm36xzdJ06dKiV1n35mkfFVmh4pCcICAq2ZfhDtzlUV1Vu5A2/vT/F/OGp9l/gPQiAAAiAgDEEEjgAKKs7QK18TzJCMgZkU/awXCpeIbdLJZGboEwG/LlSacVC3gQAYvq3rBexenu+lOlWmhvr6WBJUbfnBeAJv+c21wdgu9FkEAABEDCdQEhQCMWFx1JFg+S7M0ZGcS+ARgAgTlzF+ktW7cljYswbCfbmJD5HxqL/v70zAZOquPb4mV5nejaYGYZ9lSEgAm4ggksibrhEDSYmMdHkRV+M0Zcv38uixuTF6PcSE2NeoiYxmhijEVCjCMQFBGRTEJRd2RkEcYYZGYYZZp+edw4wOlvf7q6q231v97/8jtN97z1Vp3636Xu66tSpR2K8FpfpEXiP1f+oVwW0QQAEQAAErAjIKIDJMuzsEuo9RCvlsGQFlD0CElZidQDEIBmakKFpFPsItHHV32Vptq8J1AwCIAACsRGor63j+KYt9M4rq2jzsvVUVXYoNkUXXJXlyyRJDmSscHb/Uz5vJDGQMZOiVRTPkL6MlUju4tdZ3DlpH41G8s8/wCa8kXwzYAEIgEA6EzhYWkbzHnqeNi5+l1qbO49ID5swki7/7hdozJRTXI8oP5hPB+sqjPVjzPQJ9NbjS6ilQfk33EVszECWD40ZZVFRPCMAUs0bLDJHgWKewJtc5U/MV4saQQAEQCB2AusXrqFfXXs3rXvt7W4Pf6mldMNOeuQ/f00vPjCL2tpk0NK9RTYIysiQjfnMlGBOJo08b4xOZfJMvk6ngnh04xkBaK/3Xn5xEov2qoD2CvH3WLKlq5mDstsIhokhcLTuKLW0NFNzs/qtki+cgD9AwWAmBQIGhyATgwCtpDCB7W+/T0/88I/U2hI9hfuiv79MwVCQLrv1GtcS8fIKtJxANtU0audt+YTBWJ4G2LpAK+fN9VzZg59UaOMLFQdAXL6bWCSH8edttC1dqt7HHZUsUObGodKFXAL6WV5RTqUf7KGPyg9QVVUVtehnd+xkdSgrRH2Kimlg/4E0YthJlJWZ1ek83oBAogjIUP8zP/trTA//dpte+fMcGn/BGTRo9JD2Q677K9MAJh2AAeMGU8HwPnRoj/JXugQSyDCCVmKBWG5EvFMA7XXKz58ZLFir3k5E7a9slziFZY+aOrTsIBAOh2n7zm303Euzae4rc2jjlg1UUVlh/OEvttfV19HefaX05tsr6ZnnnqZFy16nQ1XmEpTYwQd1piaBtRzoV7n/YFydawu30ZJ/vBqXjtMuzvaHyO9V+S0cuScGdgmUUQDbi6oDIIZJZMg3WWR1QPTxIr4IpROBf/O7c1n2dzqKN0klIL/4X5j/L1r65ht0uNpYVseY+iRJSXaX7jrW/srVK6ipuSkmPVwEAiYIbF66XqmaTUvXuT8WIGB2R97RF48nX1DLqZC8O+aCEyLcWR0HQKqU6QCJCbiQBQ8yhhBDaeRrfsQi6z2rYrgelySIwLpN79L8V+dS1eHkLnWSwKr3tm2hF+e/QB8fwmhAgm5/2jdT8UG5EoO66qNUf6ROSdcpSrI/gMkSzM2k4VNG6VQ5nJXP1qkgFl1dB6C9jTf4hcxZ/JZFPTqKlVO8LOD+jWP5DYu7w2dT6EbJA3fZm0tp7bo1xlKDmsBzpKaa5r32En34UUJWBJkwGXW4mEBDbb2y9XVHjirrOkEx6A1SwGM2IHfUNO1lkrZPA5hyAOQeShjlD1jE7fkDC1LZMoQTZSX/lYDJS1h2nDiGPw4hsGLVMtq2U5JdOq/IaoMFi1+lsoMfOc84WAQCKUQgN9PsKMDQySMpM08rqFfi7Ew+o7vdLTsqL+VWvscykuUOFkltm46lkjv9MMsklnNY5rGgOIyABPht3eHMh387Kll5sHDJAjp61NxSpfa68RcEQOA4gTzDcQBev5e3CZaBceXSlzXPUtaOQdEOB6C9WRm3vJ9lLIvkDbiZRVYNrGGpZkmlItFa4ui8wHIni9y0fiy3s0h/URxIoPLjClqz7m0HWtbdpIbGBlq8fHH3EzgCAiBghEDA6zebGpitGnWhPP60iuSHsa1ohSnGYdVuvlbk8Q46MjYiYy65HY6pvJR5dXEwVMrFrLRLRfGETgP/lZ9lkiYZxUUEZN5/xerlJEv+3FJkGkCmKj4zcrRbTIadIOAqArmBXGqs/9iYzQMnDKWcolyqraxRrfMqVvyxqnI0vUQ5AD3ZUc8HRSp6OhnHMZ2gQ0nCI44JSpoRkOQ+srbfbeWd9WupZMQo8njsHLxzGxXYCwJmCEgcQKVBByDDk0El08bSutmrVA38DCuKx2/LPCW+RVRvC/RcTUDm/t1YJBXxrj073Wg6bAYBxxOQlQCyIsBkMbAawLZpADgAJu806nIFgcPVVXSwMr6MZ07q2PZd251kDmwBgZQikMt7A5gsxaP6U06xVqIhmQawpcABsAUrKnUygb379jrZvKi2yb4ETU0Sd4oCAiBgmkCIUwMbLZzPTzMpkASVDzJq04nK4ADYQRV1OpqAPEDdXCSAEXkB3HwHYbuTCWT5s8iX4TVq4ohzZCpfubALQdOVtS0UkxkEaGEWToGAfQSqDutlYM7MzKTC3kXK+4g3c47/Cl6CqLMCQfowZNBQ+yChZhBIYwKhQIiONCpH7ncjN/DUoRTIDlLTUckEr1RkxdpjSpoWSnAALODgVOoRkF/PEkinWiadPplmXHEteb16vxAqOAbhz0/+kaqPqKXEqKk19+WkygJ6IJCqBHI4DsCkAyBJgYZOOol2LFHOizeNWcuXjtGN9+AApOonGP3qkYCk1hUnQKXI0rurp1+j/fCXtvsUFdP5Uz5Hc1+do2IKdgpUopZaSjKCVLphF5XvOUCHy6uoqUEvLuToYfVMk68/8W/KylUPnvP6vJRbmEdFg4qpZOJoCmSZjcSP984fjwOQkXe174qe2hs+dZSOA9Cb6zyTZXVPdasegwOgSg56riTQGlZ3oENZIQoEAsb63buX/JtWK62t6v1QaxFaTiFQW1VDCx6fR2vmvUk1h5yRg2zFs0uM4fEHAzT2vAl02a1X04CSwcbqjaciL8cAZPkzqb5ZUtWYKcMml5DH56Fwi3LysYvYEqMOAIIAzdxb1AICIAACthNYNWc53TP9h7T4yVcd8/A33enmxiZav3AN/WrGT+m5Xz5FrS3JcXZzDK8GkC2CB4wbooNLHACjBQ6AUZyoDARAAATsITDnt7Po6bsfo/raOnsacFitMsWx9J8L6eGb7k9Kn7MDZncHFLyDzxyhQ/lsVtZKKNC1cTgAXYngPQiAAAg4jMDrT7xMIulYdqzdSn/770e0Vs2ocAt6A+TzmJ0lHzJRywHwcz/OU+lLJB04AJHI4DgIgAAIOIDAng07ae7vnnWAJckz4f2Vm2jhX+cn3IAQ5wQwWfqU9KOsfK1EQ0anAeAAmLy7qAsEQAAEDBN48YGZCf/1a7gLRqpb8Nh8qvlYbdmsqgFZPrMOgGwONPC0YarmiN6FOspddeEAdCWC9yAAAiDgEAK71+0gERSixroGWj57cUJRhAJmHQAxfvAZw3X6MIaV++hU0FEXDkBHGngNAiAAAg4isGHRWgdZk3xTNi5+J6FGyO6AxuMAJo3Q6YMkJ5iiU0FHXTgAHWngNQiAAAg4iMDOtdscZE3yTdm/9YOErwgwPQ2Q168X5Q9QzwHCd2GqqTsBB8AUSdQDAiAAAoYJHC4/ZLhG91dXzVkPE1kcOA1wjqn+wwEwRRL1gAAIgIBhApL1D6UzgURnPwz5tKL2Oxt/4p1mIOAZXI0Ro+AA9Hh7cBAEQAAEkk+gLWwuF33ye2PGgnCrcipdJQMCXr/xOIABE7QyAko+8klKnemiBAegCxC8BQEQAAEQAIGOBLJ8mR3far/OKcql3L75OvUYmQaAA6BzC6ALAiAAAiCQ8gSyDO8LIMD6n6K10ZGRQECzeQ5T/mOADoIACICAOwj8+Ed3kCfDmb/xZs5+hkpLS90Bkq2UnQFNl/7jBtP2RZtVq5WlgF4WrZ2S4ACo4oceCIAACDiYwHe+/R3yeuUZ4byyfMUyVzkAsi9ABnmojczFH/QfN0jnxsimQKNZtuhU4kz3UKdH0AUBEAABEAABgwQy+PEf9AcN1khUNKIvBbK16jxT1yA4ALoEoQ8CIAACIJDyBDK9Wg/rbnxkX4B+Jw/sdjyOA7IcUKvAAdDCB2UQAAEQAIF0IGB6JYAwkzgAjYIRAA14UAUBEAABEACBmAhkGp4CkEb7jdEaATiVq9CK48MIQEy3HheBAAiAAAikMwG/x298VUXx6AE6SGWrwrE6FcAB0KEHXRAAARAAgbQgIIGAmYaXA2bmZekmBNKKA4ADkBYfXXQSBEAABEBAl0CW13w+gOJR/XXMggOgQw+6IAACIAACIBALgUyf2ZUA0mafz2g5AFqBgBgBiOWuu+8a5WwV4bCyqvsowWKzBAzvWxPW2Agnw4uvNrM3F7UJgaDhPQGkzmI9B2ACV+GXelQK/pWoUHO+Tq2qifUN9aqq0EtzAm1tZj2Ahkb1z2IwZH6oNs1vL7rPBPwen/lAQL0pABmSGKV6c+AAqJJztt4RVfPKK8pUVaGX5gTCbeZGj1paWqi6ulqZaFaOBEijgIB5AkHD0wBZvUKUUyyZfZXLKaqacABUyTlbb4+qeaV791BzS7OqOvTSmEBrq9a+JJ3I7ftwH7WG1esrHNSnU314AwKmCAQNZwQUuzSnAeAAmLq5KVLPNtV+NDQ20PpN61TVoZfGBEw5js3NzfTets3KJEN52ZRboPWLSrltKKY+gaBXeco9IpziEq1AQDgAEcmm54m3dbq9YfN62r13t04V0E0zAhI8amIEQOpZvfYtqq9Xn/8fNv6kNKOP7iaSgB0jAAUjtEas4AAk8gPggrbk6V2qaqcEcy1e9jqt2/iukS91VTug5x4CTU2N2sbWHq2lpSuXUNlBvTiUUWedrG0LKgCBSAQCPtkaOCPSaaXjhcO0HIAR3GhIpWGtPMIqDUInYQTmckv/pdqaOAFr16+hbTu3UsmIUdS/3wDKDoWMR8Cq2qeq19Co/6BSbdukngTJ1dQox3qaNIV3SG+j2toaUlkE0MLxJkdY96OyA7T/wD4ysQx13OdOM9o/VAYCHQl4M7zk9XipJdzS8bDW6/yBBeQN+Ki1SalOieUbw/JOvEbAAYiXmHuuf4pNVXYA2rtZw1/O727kz5UIimMIyMNy1oszHWOPUwwZOm4E9R2mNZ/qlK7ADgcTCPIoQIvaw7rHXsnWwL2HFFLlzvIez8dwUKYB4v6SxiqAGMi69JK1bLdWLIBL+w2z05jAuddNS+Peo+uJImBLHIDeNIBSHAAcgER9YpLTzv8mp1m0CgKJJ9C7fyFNvPzsxDeMFtOOgOlcAAKwcLhWHIDSroBwAFL7oytxACtTu4voHQgcJ/D5732RvH7MauLzYD+BoDdgvJECvREAiQGIu+BfS9zIXKUguVlvZZG5IdxrV906GBsPgZKJY+hM/PrvhOyuu++kjAyz0eqdGtB4s3PXTg3t5KsGbMgFoDkCMISpSFrguKKc8VBI/mfJbgs2cgP3sNxrd0OoHwSSQSArN0TX3/stxz7sksFE2nxm5jPJajrl280gD/l4XwCTKwHy+vcmX5DrbFReCTCCwb8fD3xMAcRDy73XSizAq+41H5aDQM8EJHr6a/fdTEWDinu+AEdBwCYCAcPTAMdWAgwu0rF2VLzKcADiJebO62WXli+xxL1MxJ3dhdXpQuCaH3yFJkw7I126i346iEDAa34APX9QgU4PS+JVhgMQLzH3Xl/Dpl/Gst69XUiu5U6dT00uleS1fvltM+iCGy5NngEJaNnjw1d0V8xen/kHb9c2Ynnv95gPBOw1qHcsTUe6ZmSkE5GO49MViUxqHj/I3fosy+LU7B56lQ4EvD4vfeV/vknTb7kq5bubW5if8n2Mt4N5Rc5gYnoKQDhIRkCNghEADXjpoiqbrF/MIoGBMjWAAgKuIdC7XwF974m7aOoXP+cam3UMlf6ifErA4/FQr75av5I/rUzzld+OKQA4AJp3BeqxEJCN1n/OchbLGhYUEHA0AQmQmnTlVLrj+ftoxGlx/9BxdN+sjBt9tlKCN6sqXX1uON/7QJasdkt+kaWApjcF6jVQy7kZxFSy4iGDKYB4aKXetZIueArLf7BsT73uoUduJyAP/tMvOYvu/Nd9dMMvv03ZvXLc3qW47D/1ojPjuj7VL3ZSwKcsBZRNgUyW7MJc8mf6VauUpA9xxQE4I5pCtbvQM0FAFp0+wfIPlktYvsZyJUt6fdNyh1GcQ6DPkL408Yopx371Fw1O3yV+A0oG03he5bBxERbw5Bbk0ZQZn3XOh5QtkVEAk7kAZJdhiQOo3KW8KZAMj22KFRIcgFhJpf51Mi3w8gkRF3QSy1QWWVsqksuSx+L2Ii77ULd3QoZB81IgQCzD66Gs7EzK5cCuvsP704CRg6hk0hgqHKiVF93tt7eT/Vd9/0u0deUmampo6nQ83d4Ih0z+rDipiANQ11xv1KR8ngbQcACGxWMMHIB4aKXPtc3c1ZUnJNV63Zc7VOb2Tp08dRzd9H/auz27HUNa2C/bG9/wq1vor99/iNraJLt3+pXJ15xHIk4rfsPJgKR/misBhsTDCDEA8dDCtSAAAiCQBAKnXngmfZmXPsoSyHQrk68+99iyTyf22+9Rnq+P2B3NXABxjW5iBCDibcAJEAABEHAOganXfpaKh/WjmT//Gx0sdf0gVlSwssfDFbfPoPO/elHUa5N1gZ/3AzBdcvv20qkyrhEA89brmA5dEAABEACBiARKzhxNP5nzS1r14jJa/dIK2rNxJ7WFU2taQAJAZeXHBTde6vhVH7IhkOmS21cr1AoOgOkbgvpAAARAwCkEZBpAEiGJ1HxcfWw0oKr8EDUebXCKiXHb4Qv4Kb+417HgT3EA3FKOOwCy+s6cE5ZbrJXpUHYTymY5GgtD8+5LLK3iGhAAARAAAW0CkioY6YK1MWpVINMAzWGJmzZTfJwHICs/RPXVdaoVyijA+7EoIwgwFkq4BgRAAARAAAR6IGBHHEBOcWKmAeAA9HBDcQgEQAAEQAAEYiFgTxyA1jRAzCsB4ADEcodxDQiAAAiAAAj0QMDHyYBMl1yMAJhGivpAAARAAARAwCwBv+H9AMS6HL1AwJhXAmAEwOxnAbWBAAiAAAikEQFbRgD0lgIOjhU/HIBYSeE6EAABEAABEOhCwI5sgJojAP26mBjxLZYBRkSDEyAAAvW1dbR81mLasGgtle8+QM2NzceWnZVMHE1TODOdJKZBAQG3ETh0oJKWPrOQtizfSIc+rKDW1jAVDCiiseeMp3O/PO3YxlSx9smOVQCaMQBwAGK9ebgOBECgZwJblm2gp+9+jGoOHel0wWFOOrNm/pvH5LSLJ9L1997suF3aOhmMNyBwgoBsprT4yVdo7u+fp9Zm2Qn901Kxt4zeYFk+exFdfPOVdNmt11BGhiT5sS6eDA+JhNvC1hfGcTZUwLuxq+cXklzCWSxRtynEFEAcNwWXgkC6EFi/cA09etvvuj38u/Z/3YI19PDN9/PIQHpvVduVC947k8C83z9HLz4wq9vDv6O1rS2t9Mqf5tCsX/y942HL1z7DgYAeH2+TnReybDPKyZhGAeAARKGI0yCQbgRkePSpnzxG4XBsv2hKN+6iOb+dnW6Y0F+XEXiPh/sXPD4/ZqtXPrfk2ChXLApeG/YEODYKEEvjPV/Tv+fDnY/CAejMA+9AIO0JvPbYPGqsiy+v/PLZi+njDyvTnh0AOJfAnAfjd1LnP/Q8hVtbo3bKl2F+m+ZQgaT0Vy4YAVBGB0UQSFMC8qt/3YK34+69fEmue2113HpQAIFEEDiwYz8d2LEv7qbEqd2zYVdUPVtGAAo5DkC9YARAnR00QSA9CZTt+pDqqmPaSKwboH3v7+12DAdAwAkE9r1fqmzGzne2RtU1HQMgDWZLIKB6wQiAOjtogkB6EijbdUC540cP1yrrQhEE7CSg6tSKTbH8m/DyKgDTBTEApomiPhAAAUsC5Xs+sjxvdTKUpzVnaVU1zoGAFoFQvvpns4zzX0QrtkwBIAYgGnacBwEQMEkgli+7SO0VDe4T6RSOg0BSCfQZ3Fe5fUmA1RZus9S3JwhQawoAMQCWdwwnQQAEuhHQcQD6nTSwW304AAJOINDvpAHKZjQ1NNGhjz621LdjBEAzBqDI0uATJ81PXMTSKq4BARBwHAH5lXOwtEzZrn4j1L9klRuFIgjEQECmp/KK8mO4sudLJDjWqtgRBBjSWwVQaGVv+zk4AO0k8BcE0pzAoY8qlTP6ScrUvsNjGnVMc8rofrII6Dio0WJjJBVwLGmD4+l7MCeTMjzRUxFHqFOCHjIjnPvkMByAT1DgBQikN4FYop0jEerdv5CCoajfN5HUcRwEbCeg4wBU7iuPap/pOAB5+IsToFEKouk6YTdAMfJkFplAVBmjkY0PVMuXWFF9zFO11U/1mo8Y8+AAAAv4SURBVPmlhF2/xVL96eGEvhrHrY1h0eGYUIM1G8tT1W9ubqZVa+VWmSkflu1XrqiSdzCTVKUmy4610dc7R2rPF/AZtydSW0487vV5KZSfQ0WDi6nfiP7k8ZrPDOfEfrvJJp0YlYoPojsAXs4G2EydNxjS5ZOZH6KGI1H39InUjMQBWC5hSJYDcBIbdiPL1SynsCiPc7CuTrlHR9mgruyk8jzL3Sx7DNYbqSrh/XWWn7KMjHQRjncm0NDYQM/Pe7bzwSS9289Jd2be80SSWu/erMQOOMme7hYm7oiMhMg2yWdcNplOvWgi+YP+xDWOliIS6DM0ptw4PepXfHCwx+MdD3rF6YueNbijStTXmXlZUa+xuCBqHECipwDkwT+LZTuLPHzk12eyHv7ctGNKgC35Kss6lotttirI9c9keZIFD3+bYaP69CMg+yhsXraenrzjz/SLK35Eq+euiLqMLP0oJb7HfXh0RrXIKgDZJdCqyAiA6ZJKDsBtDGcTy3UsiXY8TN8Xu+qTKZAXWU6zqwGu9y8scg9QQAAEbCZQxQ+Op+76C91/3c9I9ptHSR4BiVNRnZqRvS5kl0yr4nGeAxA1BiARD2KZZvgDy0MsWuMZVvBT6FyI+yJju3bcm8u53htSiBW6AgKuICBTNr/5yj207a0trrA3FY2UOI0CdgJUS+U+62kAO9IBu30EQB7+c1luV4WepnoTuN/TbOj7D2yoE1WCAAjEQKDuyFF65JYHaP3CNTFcjUvsINBniPo0QLTtrr0e87/Z3O4APMg3cbodNzIN6rzCcB8l+v1cw3WiOhAAgTgIyFDyP+58lGREACXxBIo0UgJXV1RZGuzAKYCowx3mXZZPEX2LX+KX/6c84n0lAZMmy1CuzHyUikkLURcIpAEBSS376O2/o9qqmjTorbO6WDAg6jMxosGHy6M5AOYfp3aPAMgQvR1lAFcqv/5RFAmcM/Wci2f+c9YhRfVuahs3bfRefuVl3Y7jAAiAQOIJVJUdojkPzqav3XtT4htP4xZ79Y0aFxeRTrQRAAfGAETN7WKXAyDr2WXIGUWRwJAhQ2TxcG9F9W5qAwcOPJaqsq2trds5HAABEEg8gdVzltMFN1xKA0oGJb7xNG0xv0/UZ2JEMtUHD0c8JyfsmAII5mrFzUd9BpsfsyCS7EPftCSFk1EJnHfu+VGvieeCwoJCOmXsKfGo4FoQAAEbCYgzvujvL9vYAqruSiC/r/pvquqD1lMAdgQBBrIlbYtySYoDIGvMtRIYK3c3RRQHDRpMF114kfHefOPGbxivExWCAAioE1i3YA1J4iCUxBDI76PuABw9XEstTS0RDZUNgUwXNzoApqPXTTN1dH0eXkpy3y/uo0BAkgOaLTO+cC1NPmuy2UpRGwiAgDKBpvpG2rFGfQ8G5YbTVDEzO5NEVIqM2FRXRJ4GsCMTYCDkrhEAcYHOUYELHQ7R51zS995zL027wI4UAMfrf/RPf6Fx48YDNwiAgEMI7Hxnm0MsSQ8z8ovVRwGiTgMYzgboC/rI41MeWZA4MssgAuWaI3xUBvPxnAjncNiCwMljTiaO+qcbvn6jxVX6pwoKCuiF516g79xyKwWDWt6lvjGoAQRAgMp3W27YBkKGCdjpAMgIruli5yiA6VUA/XU6f+kll1Jhofo6TZ22k6GbmZlJ/fr2o7MnT6Hx48cfi9JPhB3S7l133EW33XobLV6ymHbt3kWVFRXUxv+hgAAIxE9g1apVx/4dxa/J+4BHCS5TqRM6kQn00hgBOBzlXnkyzO9tJw6AxpbAuUyiPBIN0w5AdqSGoh0//bTT6bFHH492Gc4bJJCXl0dXX3W1wRpRFQikJ4HNWzbT9MsvVep8Y12jkh6U1AjYOgJgeApAeugPacWDWa4EMD1eoZxpLjsHMwdqH2dogQAIJJtATrb691c4HE62+WnVfn6xRi4AiyBAgei2lQCmHYC0+iChsyAAAiAAAu4ioDUFEC0dMNkwBZDlnhEAd30SYC0IgAAIgEBaEdCZAqg5dMSSVYYdMQA2JgPCCIDl7cRJEAABEACBVCKQV6Q+BVBfU2eJwkPmH6l2JgMyb60lHpwEARAAARAAgeQRCOWHlBuvP3LUUjfDY34KQDMI0LKzcAAsbydOggAIgAAIpBKBzOwsUl2vL1s5W6UD9towAuAPSj4f5WKZ9hAOgDJXKIIACIAACLiNgMzTZ+ZYJsiz7FJ9jcUogA37AXj1HADLjsIBsLzVOAkCIAACIJBqBLJyLUfGLbtbZxEH4LVhFYCkA9Yolh2FA6BBFqogAAIgAALuIxDKV85ZR3XVkUcAMmxIBezDCID7PmCwGARAAARAwJkEdEYArFYC2JEIyBfQGgHAFIAzP4KwCgRAAARAIBkEQjpTABYrATLsmALI1AoCxBRAMj5gaBMEQAAEQMCZBLLy1KcArEcAzC8D1IwBwAiAMz+CsAoEQAAEQCAZBEJ5lj+MLU2qPxI5GZAtUwCIAbC8HzgJAiAAAiAAAjET0IkBsFoFkGFDHgDNGABLTwerAGL+yOBCEAABEACBVCCg4wBYZQP02LAXAKYAUuEThz6AAAiAAAg4gkBIIwbAcgTABgcAiYAc8ZGBESAAAiAAAqlAIEsjBqDOYhUA2bAKwK+3CgBBgKnwgUUfQAAEQAAEzBAI5aqvAmisa4xohPk1AERevTwAgYjG8gnEAFjRwTkQAAEQAIGUI6CzwU5LU3NEHrLPgOni8Wo9pi2TCGjVbLqjqA8EQAAEQAAE7CbgC1g+Fy2bt9oN0I4pAI/Pa2lPlJOWHYUDEIUeToMACIAACKQWAa0RgEarEQDznLw+rcc0HADztwQ1ggAIgAAIuJWAzgY7zVZTADYEAWqOACAGwK0fUtgNAiAAAiBgnoDPr77BjlUMgFhqOhdAhod3GGBRLDJ8EHEIIeIJxcagBgIgAAIgAAKOJqAzBdBsMQVwvNPKD+uIzOwKBIQDEBE5ToAACIAACKQiAR0HwDoI0B5acADs4YpaQQAEQAAE0oyAx+slj0ft92+4tZXC4XBEYqanAKQhzTiAiIGAagQidh0nQAAEQAAEQMD5BHQCAVsspgF4xt545z02rQSAA2D8VqFCEAABEAABpxPQ2WXPMg7ARcmA4AA4/VMK+0AABEAABIwT8ActV8hZtme1EsD8739MAVjeDJwEARAAARAAgXgI+DWyASY8F4BN6YAxAhDPJwbXggAIgAAIpAQBu2IAbIGjN60Q8Tkf8YQtnUClIAACIAACIOAAAnbFALS0RV4hoNLt2oNHqKbssIpqu05d+4uuf007AJH3Sezacpf3O3Zsp4MHD3Y5ircgAAIg4GwCbW1ttOLNFcpG6jyIlBuFIulMAbQ0t/RIMMwP/3C4tcdz8R5sC7dR+dYD9O+7n6Vwq7JTIYoVkdo2Ha9wGjf0bqTGcBwEQAAEQAAEQCBhBPZxS0MitWZ6BGAXN9QWqTEcBwEQAAEQAAEQSBiBt61aMu0AHOHGdls1iHMgAAIgAAIgAAIJIbDEqhXTDoC0tdiqQZwDARAAARAAARCwnYAEI/zLqhU7HIDZVg3iHAiAAAiAAAiAgO0E5nILZVatmA4ClLbEqdjIMlbeoIAACIAACIAACCSUgMTincWyxqpVO0YAZNnBHVaN4hwIgAAIgAAIgIBtBP7JNVs+/KVlO0YA2nu0lF+c1/4Gf0EABEAABEAABGwnIMP+E1iiJtaxYwSgvXff4BeV7W/wFwRAAARAAARAwFYCzVz79SxRH/5ihZ0OwB6ufwZLkzSEAgIgAAIgAAIgYBsBmfe/iSXmlXhe20w5XvFe/rON5QoW//FD+D8IgAAIgAAIgIBBAvLL/waWp+Op084YgI52nMpvXmIZ0vEgXoMACIAACIAACGgR2M/aX2ZZGW8tdk4BdLRlPb+ZzPJ8x4N4DQIgAAIgAAIgoERAdiR6mGUcS9wPf2kxUSMA0lZ7OYdf/JhlOovdUxDtbeIvCIAACIAACKQCAUm5P4vl1yyy/45ySYYD0G5sf35xJcv5LCezyPRAHouPBQUEQAAEQAAE0p1ALQOoZtnBIiPpEuD3Oks9i3b5f++yJ8vQFeeHAAAAAElFTkSuQmCC;" vertex="1" parent="1">
          <mxGeometry x="80" y="590" width="202" height="202" as="geometry" />
        </mxCell>
        <mxCell id="a1-RJesYKHAOPn0vcj3T-4" value="" style="shape=flexArrow;endArrow=classic;html=1;rounded=0;" edge="1" parent="1">
          <mxGeometry width="50" height="50" relative="1" as="geometry">
            <mxPoint x="500" y="690.5" as="sourcePoint" />
            <mxPoint x="340" y="690.5" as="targetPoint" />
          </mxGeometry>
        </mxCell>
        <mxCell id="a1-RJesYKHAOPn0vcj3T-6" value="&lt;b&gt;&lt;font style=&quot;font-size: 17px;&quot;&gt;물건을 산다&lt;/font&gt;&lt;/b&gt;" style="text;html=1;align=center;verticalAlign=middle;resizable=0;points=[];autosize=1;strokeColor=none;fillColor=none;" vertex="1" parent="1">
          <mxGeometry x="375" y="640" width="100" height="30" as="geometry" />
        </mxCell>
        <mxCell id="a1-RJesYKHAOPn0vcj3T-7" value="&lt;b style=&quot;font-size: 19px;&quot;&gt;&lt;font style=&quot;font-size: 19px;&quot;&gt;진열된 물건&lt;/font&gt;&lt;/b&gt;" style="text;html=1;align=center;verticalAlign=middle;resizable=0;points=[];autosize=1;strokeColor=none;fillColor=none;fontSize=19;" vertex="1" parent="1">
          <mxGeometry x="335" y="465" width="110" height="40" as="geometry" />
        </mxCell>
        <mxCell id="a1-RJesYKHAOPn0vcj3T-8" value="" style="shape=flexArrow;endArrow=classic;html=1;rounded=0;" edge="1" parent="1">
          <mxGeometry width="50" height="50" relative="1" as="geometry">
            <mxPoint x="490" y="500" as="sourcePoint" />
            <mxPoint x="550" y="580" as="targetPoint" />
          </mxGeometry>
        </mxCell>
        <mxCell id="a1-RJesYKHAOPn0vcj3T-9" value="&lt;b&gt;&lt;font style=&quot;font-size: 17px;&quot;&gt;물건을 집는다.&lt;/font&gt;&lt;/b&gt;" style="text;html=1;align=center;verticalAlign=middle;resizable=0;points=[];autosize=1;strokeColor=none;fillColor=none;" vertex="1" parent="1">
          <mxGeometry x="530" y="505" width="120" height="30" as="geometry" />
        </mxCell>
        <mxCell id="a1-RJesYKHAOPn0vcj3T-12" value="" style="shape=flexArrow;endArrow=classic;html=1;rounded=0;endWidth=74;endSize=13.44;width=48;" edge="1" parent="1">
          <mxGeometry width="50" height="50" relative="1" as="geometry">
            <mxPoint x="180.5" y="850" as="sourcePoint" />
            <mxPoint x="181" y="940" as="targetPoint" />
          </mxGeometry>
        </mxCell>
        <mxCell id="a1-RJesYKHAOPn0vcj3T-13" value="&lt;b style=&quot;font-size: 25px;&quot;&gt;&lt;font style=&quot;font-size: 25px;&quot;&gt;구매이력 데이터를 남긴다.&lt;/font&gt;&lt;/b&gt;" style="text;html=1;align=center;verticalAlign=middle;resizable=0;points=[];autosize=1;strokeColor=#6c8ebf;fillColor=#dae8fc;strokeWidth=2;fontSize=25;" vertex="1" parent="1">
          <mxGeometry x="50" y="950" width="280" height="40" as="geometry" />
        </mxCell>
        <mxCell id="a1-RJesYKHAOPn0vcj3T-14" value="&lt;b style=&quot;font-size: 30px;&quot;&gt;&lt;font style=&quot;font-size: 30px;&quot;&gt;현실 세계의 슈퍼마켓&amp;nbsp;&lt;/font&gt;&lt;/b&gt;" style="text;html=1;align=center;verticalAlign=middle;resizable=0;points=[];autosize=1;strokeColor=#82b366;fillColor=#d5e8d4;fontSize=30;" vertex="1" parent="1">
          <mxGeometry x="280" y="210" width="280" height="50" as="geometry" />
        </mxCell>
        <mxCell id="a1-RJesYKHAOPn0vcj3T-15" value="&lt;span style=&quot;font-size: 20px;&quot;&gt;&lt;b style=&quot;font-size: 20px;&quot;&gt;고객&lt;/b&gt;&lt;/span&gt;" style="text;html=1;align=center;verticalAlign=middle;resizable=0;points=[];autosize=1;strokeColor=none;fillColor=none;fontSize=20;" vertex="1" parent="1">
          <mxGeometry x="635" y="815" width="60" height="40" as="geometry" />
        </mxCell>
        <mxCell id="a1-RJesYKHAOPn0vcj3T-16" value="&lt;span style=&quot;font-size: 19px;&quot;&gt;&lt;b style=&quot;font-size: 19px;&quot;&gt;직원&lt;/b&gt;&lt;/span&gt;" style="text;html=1;align=center;verticalAlign=middle;resizable=0;points=[];autosize=1;strokeColor=none;fillColor=none;fontSize=19;" vertex="1" parent="1">
          <mxGeometry x="151" y="795" width="60" height="40" as="geometry" />
        </mxCell>
      </root>
    </mxGraphModel>
  </diagram>
</mxfile>
